<svg width="17" height="16" viewBox="0 0 17 16" fill="none" xmlns="http://www.w3.org/2000/svg">
<g clip-path="url(#clip0_1_755)">
<path d="M1.40809 0.527999L0.912094 1.04L1.56809 1.6C2.64543 2.496 3.87209 3.17867 5.24809 3.648C5.77076 3.82933 6.22409 3.94667 6.60809 4C7.02409 4.064 7.62676 4.10133 8.41609 4.112C8.97076 4.112 9.49343 4.10133 9.98409 4.08C10.4961 4.05867 10.8428 4.02667 11.0241 3.984C11.1628 3.952 11.2428 3.95733 11.2641 4C11.2854 4.04267 11.2241 4.15467 11.0801 4.336C10.9361 4.51733 10.6774 4.81067 10.3041 5.216C9.94143 5.58933 9.40809 6.13333 8.70409 6.848L6.09609 9.472L0.496094 15.072L0.944094 15.552L1.42409 16L7.02409 10.4L9.64809 7.792C10.3628 7.088 10.9068 6.55467 11.2801 6.192C11.6854 5.81867 11.9788 5.56 12.1601 5.416C12.3414 5.272 12.4534 5.21067 12.4961 5.232C12.5388 5.25333 12.5441 5.33333 12.5121 5.472C12.4694 5.65333 12.4374 6 12.4161 6.512C12.3948 7.00267 12.3841 7.52533 12.3841 8.08C12.3948 8.86933 12.4321 9.472 12.4961 9.888C12.5494 10.272 12.6668 10.7253 12.8481 11.248C13.3174 12.624 14.0001 13.8507 14.8961 14.928L15.4561 15.584L15.9681 15.088L16.4961 14.592L16.0961 14.16C15.8828 13.9573 15.5414 13.4773 15.0721 12.72C14.3894 11.5893 13.9628 10.3733 13.7921 9.072C13.6214 7.78133 13.7094 6.504 14.0561 5.24C14.4028 3.976 14.9921 2.816 15.8241 1.76L16.4801 0.927999L16.0481 0.463999L15.6001 0.0159988L15.1681 0.351999C14.6774 0.725332 14.1494 1.08533 13.5841 1.432C13.0188 1.77867 12.5494 2.02667 12.1761 2.176C11.6001 2.4 10.8668 2.57333 9.97609 2.696C9.08543 2.81867 8.35209 2.84267 7.77609 2.768C6.78409 2.65067 5.77876 2.37067 4.76009 1.928C3.74143 1.48533 2.93343 0.975999 2.33609 0.4L1.90409 0L1.40809 0.527999Z" fill="#404A3D"/>
</g>
<defs>
<clipPath id="clip0_1_755">
<rect width="16" height="16" fill="white" transform="matrix(1 0 0 -1 0.496094 16)"/>
</clipPath>
</defs>
</svg>
