<svg width="16" height="19" viewBox="0 0 16 19" fill="none" xmlns="http://www.w3.org/2000/svg">
<path d="M7.8482 8.89597C9.03619 8.89597 10.0562 8.46997 10.9082 7.61797C11.7602 6.76597 12.1862 5.74297 12.1862 4.54897C12.1862 3.35497 11.7572 2.33497 10.8992 1.48897C10.0412 0.642971 9.01519 0.219971 7.8212 0.219971C6.62719 0.219971 5.6102 0.651972 4.7702 1.51597C3.9302 2.37997 3.5102 3.39997 3.5102 4.57597C3.5102 5.75197 3.9302 6.76597 4.7702 7.61797C5.6102 8.46997 6.6362 8.89597 7.8482 8.89597ZM5.5262 2.23597C6.1622 1.59997 6.93619 1.28197 7.8482 1.28197C8.76019 1.28197 9.53419 1.59997 10.1702 2.23597C10.8062 2.87197 11.1242 3.64597 11.1242 4.55797C11.1242 5.46997 10.8062 6.24397 10.1702 6.87997C9.53419 7.51597 8.76019 7.83397 7.8482 7.83397C6.93619 7.83397 6.1622 7.51597 5.5262 6.87997C4.8902 6.24397 4.5722 5.46997 4.5722 4.55797C4.5722 3.64597 4.8902 2.87197 5.5262 2.23597ZM15.4262 14.062C15.4142 13.75 15.3662 13.372 15.2822 12.928C15.2102 12.532 15.1172 12.154 15.0032 11.794C14.8892 11.434 14.7362 11.074 14.5442 10.714C14.3162 10.342 14.0762 10.036 13.8242 9.79597C13.5602 9.53197 13.2242 9.31597 12.8162 9.14797C12.4322 8.99197 11.9942 8.91397 11.5022 8.91397C11.4062 8.91397 11.3072 8.93497 11.2052 8.97697C11.1032 9.01897 10.9682 9.09997 10.8002 9.21997L10.0622 9.68797C9.79819 9.84397 9.48619 9.98197 9.12619 10.102C8.70619 10.234 8.31319 10.3 7.9472 10.3C7.58119 10.3 7.2032 10.237 6.8132 10.111C6.42319 9.98497 6.1022 9.84397 5.85019 9.68797C5.5502 9.48397 5.31019 9.32497 5.1302 9.21097C4.9502 9.09697 4.8092 9.01897 4.7072 8.97697C4.6052 8.93497 4.5062 8.91397 4.4102 8.91397C3.9302 8.91397 3.4952 8.99197 3.1052 9.14797C2.7152 9.30397 2.3822 9.51397 2.1062 9.77797C1.8302 10.042 1.5902 10.354 1.3862 10.714C1.1822 11.074 1.0232 11.425 0.909195 11.767C0.795195 12.109 0.699195 12.499 0.621195 12.937C0.543195 13.375 0.498195 13.75 0.486195 14.062C0.462195 14.518 0.450195 14.872 0.450195 15.124C0.450195 16.072 0.750195 16.825 1.3502 17.383C1.9502 17.941 2.7062 18.22 3.6182 18.22H12.2942C13.2302 18.22 13.9922 17.944 14.5802 17.392C15.1682 16.84 15.4622 16.084 15.4622 15.124C15.4622 14.644 15.4502 14.29 15.4262 14.062ZM13.8602 16.618C13.4882 16.978 12.9662 17.158 12.2942 17.158H3.6182C2.9462 17.158 2.4272 16.978 2.0612 16.618C1.6952 16.258 1.5122 15.76 1.5122 15.124C1.5122 14.68 1.5242 14.35 1.5482 14.134C1.5722 13.762 1.6142 13.42 1.6742 13.108C1.7222 12.82 1.8002 12.484 1.9082 12.1C2.0402 11.74 2.1722 11.452 2.3042 11.236C2.4482 10.96 2.6192 10.729 2.8172 10.543C3.0152 10.357 3.2402 10.216 3.4922 10.12C3.7442 10.024 4.0202 9.97597 4.3202 9.97597C4.3562 9.98797 4.4282 10.03 4.5362 10.102L5.2742 10.57C5.6102 10.774 6.0122 10.954 6.4802 11.11C6.94819 11.266 7.44319 11.344 7.9652 11.344C8.4872 11.344 8.98219 11.266 9.4502 11.11C9.9542 10.93 10.3502 10.75 10.6382 10.57L11.3762 10.102C11.4482 10.054 11.5202 10.012 11.5922 9.97597C11.8922 9.97597 12.1742 10.024 12.4382 10.12C12.7022 10.216 12.9272 10.357 13.1132 10.543C13.2992 10.729 13.4702 10.96 13.6262 11.236C13.7942 11.56 13.9202 11.848 14.0042 12.1C14.1122 12.46 14.1962 12.796 14.2562 13.108C14.3282 13.588 14.3702 13.93 14.3822 14.134C14.4062 14.566 14.4182 14.896 14.4182 15.124C14.4182 15.76 14.2322 16.258 13.8602 16.618Z" fill="#5B8C51"/>
</svg>
