<svg width="67" height="67" viewBox="0 0 67 67" fill="none" xmlns="http://www.w3.org/2000/svg">
<path d="M57.0422 39.5671C57.1658 38.4175 56.3339 37.3852 55.1843 37.2615C54.0347 37.1378 53.0023 37.9695 52.8787 39.1193L57.0422 39.5671ZM36.5374 56.5312H30.4633V60.7188H36.5374V56.5312ZM14.122 39.1193L13.6101 34.3604L9.44663 34.8082L9.95848 39.5671L14.122 39.1193ZM26.2841 31.5439L31.2798 22.5866L27.6226 20.5469L22.6269 29.504L26.2841 31.5439ZM35.7208 22.5866L40.7165 31.5439L44.3739 29.504L39.3782 20.5469L35.7208 22.5866ZM40.7165 31.5439C41.1682 32.3535 41.5839 33.1041 41.9867 33.6781C42.4016 34.2685 42.9671 34.9207 43.8337 35.3023L45.5212 31.4699C45.6773 31.5383 45.6508 31.6089 45.4138 31.2717C45.165 30.9174 44.8699 30.3937 44.3739 29.504L40.7165 31.5439ZM47.2945 29.9094C46.5723 30.6288 46.1438 31.052 45.8065 31.3247C45.4852 31.5846 45.4782 31.5101 45.6457 31.4869L46.2192 35.6351C47.1566 35.5055 47.8794 35.034 48.4405 34.5801C48.9857 34.139 49.5921 33.5313 50.2498 32.8761L47.2945 29.9094ZM43.8337 35.3023C44.5827 35.632 45.4087 35.747 46.2192 35.6351L45.6457 31.4869C45.603 31.4928 45.56 31.4869 45.5212 31.4699L43.8337 35.3023ZM16.7509 32.8761C17.4085 33.5313 18.015 34.139 18.5603 34.5801C19.1214 35.034 19.8442 35.5055 20.7814 35.6351L21.355 31.4869C21.5225 31.5101 21.5154 31.5846 21.1941 31.3247C20.857 31.052 20.4284 30.6288 19.7061 29.9094L16.7509 32.8761ZM22.6269 29.504C22.1308 30.3937 21.8356 30.9174 21.5869 31.2717C21.35 31.6089 21.3235 31.5383 21.4793 31.4699L23.1669 35.3023C24.0334 34.9207 24.5992 34.2685 25.0139 33.6781C25.4168 33.1044 25.8325 32.3535 26.2841 31.5439L22.6269 29.504ZM20.7814 35.6351C21.5919 35.747 22.4179 35.632 23.1669 35.3023L21.4793 31.4699C21.4406 31.4869 21.3975 31.4928 21.355 31.4869L20.7814 35.6351ZM30.4633 56.5312C26.4492 56.5312 23.6379 56.5273 21.4922 56.2526C19.4049 55.9855 18.2257 55.4911 17.3429 54.7008L14.5501 57.821C16.3085 59.3949 18.4292 60.0823 20.9607 60.4064C23.4337 60.7227 26.5602 60.7188 30.4633 60.7188V56.5312ZM9.95848 39.5671C10.3721 43.4124 10.7003 47.1789 11.2597 50.2332C11.5419 51.774 11.8978 53.2256 12.3907 54.4855C12.8794 55.7351 13.5536 56.9291 14.5501 57.821L17.3429 54.7008C17.0189 54.4107 16.65 53.8792 16.2904 52.9602C15.935 52.0517 15.6375 50.8918 15.3787 49.4789C14.8562 46.6259 14.5518 43.1153 14.122 39.1193L9.95848 39.5671ZM52.8787 39.1193C52.4488 43.1153 52.1445 46.6259 51.6219 49.4789C51.3631 50.8918 51.0655 52.0517 50.7101 52.9602C50.3508 53.8792 49.9818 54.4107 49.6577 54.7008L52.4504 57.821C53.4471 56.9291 54.1213 55.7351 54.6101 54.4855C55.1028 53.2256 55.4587 51.774 55.741 50.2332C56.3004 47.1789 56.6284 43.4124 57.0422 39.5671L52.8787 39.1193ZM36.5374 60.7188C40.4404 60.7188 43.5668 60.7227 46.0399 60.4064C48.5714 60.0823 50.6922 59.3949 52.4504 57.821L49.6577 54.7008C48.7749 55.4911 47.5957 55.9855 45.5084 56.2526C43.3627 56.5273 40.5515 56.5312 36.5374 56.5312V60.7188ZM30.0107 13.9583C30.0107 12.0311 31.573 10.4688 33.5003 10.4688V6.28125C29.2603 6.28125 25.8232 9.71841 25.8232 13.9583H30.0107ZM33.5003 10.4688C35.4277 10.4688 36.9899 12.0311 36.9899 13.9583H41.1774C41.1774 9.71841 37.7403 6.28125 33.5003 6.28125V10.4688ZM57.9274 25.125C57.9274 26.2813 56.99 27.2188 55.8337 27.2188V31.4062C59.3026 31.4062 62.1149 28.5939 62.1149 25.125H57.9274ZM53.7399 25.125C53.7399 23.9687 54.6774 23.0312 55.8337 23.0312V18.8438C52.3647 18.8438 49.5524 21.656 49.5524 25.125H53.7399ZM55.8337 23.0312C56.99 23.0312 57.9274 23.9687 57.9274 25.125H62.1149C62.1149 21.656 59.3026 18.8438 55.8337 18.8438V23.0312ZM11.167 27.2188C10.0107 27.2188 9.07324 26.2813 9.07324 25.125H4.88574C4.88574 28.5939 7.69796 31.4062 11.167 31.4062V27.2188ZM9.07324 25.125C9.07324 23.9687 10.0107 23.0312 11.167 23.0312V18.8438C7.69796 18.8438 4.88574 21.656 4.88574 25.125H9.07324ZM11.167 23.0312C12.3233 23.0312 13.2607 23.9687 13.2607 25.125H17.4482C17.4482 21.656 14.636 18.8438 11.167 18.8438V23.0312ZM55.8337 27.2188C55.8253 27.2188 55.8169 27.2187 55.8085 27.2186L55.76 31.4057C55.7845 31.406 55.8091 31.4062 55.8337 31.4062V27.2188ZM55.8085 27.2186C55.1863 27.2114 54.6302 26.9348 54.248 26.4924L51.0792 29.2299C52.2129 30.5422 53.8884 31.3842 55.76 31.4057L55.8085 27.2186ZM54.248 26.4924C53.93 26.1244 53.7399 25.6495 53.7399 25.125H49.5524C49.5524 26.6923 50.1292 28.1302 51.0792 29.2299L54.248 26.4924ZM50.2498 32.8761C52.1411 30.9922 53.1151 30.0428 53.7634 29.6428L51.5638 26.0795C50.3916 26.803 48.9857 28.2246 47.2945 29.9094L50.2498 32.8761ZM13.2607 25.125C13.2607 25.6495 13.0706 26.1244 12.7526 26.4924L15.9214 29.2299C16.8715 28.1302 17.4482 26.6923 17.4482 25.125H13.2607ZM19.7061 29.9094C18.0148 28.2246 16.609 26.803 15.4367 26.0795L13.2373 29.6428C13.8854 30.0428 14.8596 30.9922 16.7509 32.8761L19.7061 29.9094ZM12.7526 26.4924C12.3705 26.9348 11.8144 27.2114 11.1922 27.2186L11.2407 31.4057C13.1121 31.3842 14.7878 30.5422 15.9214 29.2299L12.7526 26.4924ZM11.1922 27.2186C11.1838 27.2187 11.1754 27.2188 11.167 27.2188V31.4062C11.1916 31.4062 11.2162 31.406 11.2407 31.4057L11.1922 27.2186ZM13.6101 34.3604C13.4721 33.0773 13.3637 32.0665 13.3054 31.2443C13.2459 30.4035 13.2506 29.8968 13.2916 29.5903L9.14122 29.0342C9.04077 29.784 9.0649 30.6438 9.12841 31.5403C9.19323 32.4554 9.31151 33.5522 9.44663 34.8082L13.6101 34.3604ZM36.9899 13.9583C36.9899 15.3124 36.2191 16.4901 35.0826 17.0698L36.9857 20.8C39.4692 19.5329 41.1774 16.9469 41.1774 13.9583H36.9899ZM35.0826 17.0698C34.61 17.311 34.0743 17.4479 33.5003 17.4479V21.6354C34.751 21.6354 35.9375 21.3348 36.9857 20.8L35.0826 17.0698ZM39.3782 20.5469C38.8023 19.5143 38.2847 18.5854 37.8098 17.8254L34.2585 20.0444C34.6661 20.6966 35.1273 21.5223 35.7208 22.5866L39.3782 20.5469ZM33.5003 17.4479C32.9264 17.4479 32.3906 17.311 31.918 17.0698L30.0149 20.8C31.0632 21.3348 32.2497 21.6354 33.5003 21.6354V17.4479ZM31.918 17.0698C30.7815 16.4901 30.0107 15.3124 30.0107 13.9583H25.8232C25.8232 16.9469 27.5314 19.5329 30.0149 20.8L31.918 17.0698ZM31.2798 22.5866C31.8733 21.5223 32.3345 20.6966 32.7421 20.0444L29.1908 17.8254C28.716 18.5854 28.1984 19.5143 27.6226 20.5469L31.2798 22.5866Z" fill="#010101"/>
<path d="M13.958 48.8542H53.0413" stroke="#010101" stroke-width="3.75" stroke-linecap="round"/>
</svg>
