<svg width="16" height="17" viewBox="0 0 16 17" fill="none" xmlns="http://www.w3.org/2000/svg">
<path d="M3.92384 0.371999C3.69584 0.431999 3.50684 0.546 3.35684 0.713999C3.20684 0.881999 3.11384 1.08 3.07784 1.308L3.05984 1.47H2.39384C2.02184 1.47 1.75184 1.485 1.58384 1.515C1.41584 1.545 1.24184 1.608 1.06184 1.704C0.857844 1.812 0.674844 1.959 0.512844 2.145C0.350844 2.331 0.233844 2.532 0.161844 2.748C0.137844 2.832 0.119844 2.97 0.107844 3.162C0.0958437 3.402 0.0898438 3.936 0.0898438 4.764V12.81C0.0898438 13.626 0.0958437 14.16 0.107844 14.412C0.119844 14.604 0.137844 14.736 0.161844 14.808C0.233844 15.024 0.350844 15.228 0.512844 15.42C0.674844 15.612 0.857844 15.762 1.06184 15.87L1.13384 15.906C1.24184 15.966 1.34384 16.002 1.43984 16.014C1.58384 16.05 1.84184 16.071 2.21384 16.077C2.58584 16.083 3.19784 16.086 4.04984 16.086H13.5538L13.7878 15.996C14.0638 15.9 14.3068 15.744 14.5168 15.528C14.7268 15.312 14.8738 15.072 14.9578 14.808C14.9818 14.736 14.9998 14.604 15.0118 14.412C15.0238 14.16 15.0298 13.626 15.0298 12.81V4.764C15.0298 3.936 15.0238 3.402 15.0118 3.162C14.9998 2.97 14.9818 2.832 14.9578 2.748C14.8738 2.484 14.7268 2.244 14.5168 2.028C14.3068 1.812 14.0638 1.656 13.7878 1.56C13.6678 1.536 13.5598 1.518 13.4638 1.506C13.3438 1.494 13.1278 1.482 12.8158 1.47H12.0598L12.0418 1.308C12.0178 1.2 11.9728 1.074 11.9068 0.929999C11.8408 0.785999 11.7778 0.69 11.7178 0.641999C11.6578 0.593999 11.5558 0.533999 11.4118 0.461999C11.3398 0.414 11.2798 0.386999 11.2318 0.381C11.1838 0.374999 11.0878 0.371999 10.9438 0.371999C10.7998 0.371999 10.7008 0.374999 10.6468 0.381C10.5928 0.386999 10.5298 0.407999 10.4578 0.443999C10.2898 0.527999 10.1488 0.647999 10.0348 0.803999C9.92084 0.959999 9.85184 1.128 9.82784 1.308L9.80984 1.47H5.30984L5.29184 1.308C5.23184 0.935999 5.03984 0.659999 4.71584 0.48C4.59584 0.419999 4.46084 0.381 4.31084 0.362999C4.16084 0.344999 4.03184 0.348 3.92384 0.371999ZM4.33784 1.146C4.43384 1.182 4.49684 1.248 4.52684 1.344C4.55684 1.44 4.57184 1.602 4.57184 1.83C4.57184 2.094 4.55384 2.274 4.51784 2.37C4.49384 2.43 4.44884 2.481 4.38284 2.523C4.31684 2.565 4.25084 2.586 4.18484 2.586C4.11884 2.586 4.05284 2.565 3.98684 2.523C3.92084 2.481 3.87584 2.43 3.85184 2.37C3.81584 2.274 3.79784 2.094 3.79784 1.83C3.79784 1.602 3.81284 1.44 3.84284 1.344C3.87284 1.248 3.92684 1.182 4.00484 1.146C4.08284 1.11 4.13984 1.092 4.17584 1.092C4.21184 1.092 4.26584 1.11 4.33784 1.146ZM11.0878 1.146C11.1838 1.182 11.2468 1.248 11.2768 1.344C11.3068 1.44 11.3218 1.602 11.3218 1.83C11.3218 2.094 11.3038 2.274 11.2678 2.37C11.2438 2.43 11.1988 2.481 11.1328 2.523C11.0668 2.565 11.0008 2.586 10.9348 2.586C10.8688 2.586 10.8028 2.565 10.7368 2.523C10.6708 2.481 10.6258 2.43 10.6018 2.37C10.5658 2.274 10.5478 2.094 10.5478 1.83C10.5478 1.602 10.5628 1.44 10.5928 1.344C10.6228 1.248 10.6768 1.182 10.7548 1.146C10.8328 1.11 10.8898 1.092 10.9258 1.092C10.9618 1.092 11.0158 1.11 11.0878 1.146ZM3.07784 2.37C3.10184 2.55 3.16784 2.718 3.27584 2.874C3.38384 3.03 3.52784 3.15 3.70784 3.234C3.76784 3.27 3.82484 3.291 3.87884 3.297C3.93284 3.303 4.03484 3.306 4.18484 3.306C4.33484 3.306 4.43684 3.303 4.49084 3.297C4.54484 3.291 4.60784 3.27 4.67984 3.234C4.84784 3.138 4.98884 3.015 5.10284 2.865C5.21684 2.715 5.27984 2.55 5.29184 2.37L5.32784 2.208H9.79184L9.82784 2.37C9.85184 2.55 9.91784 2.718 10.0258 2.874C10.1338 3.03 10.2778 3.15 10.4578 3.234C10.5658 3.282 10.7248 3.306 10.9348 3.306C11.1448 3.306 11.3098 3.282 11.4298 3.234C11.5978 3.138 11.7388 3.015 11.8528 2.865C11.9668 2.715 12.0298 2.55 12.0418 2.37L12.0778 2.208H12.7438C13.1878 2.22 13.4668 2.25 13.5808 2.298C13.6948 2.346 13.8148 2.427 13.9408 2.541C14.0668 2.655 14.1538 2.76 14.2018 2.856C14.2498 2.952 14.2768 3.048 14.2828 3.144C14.2888 3.24 14.2978 3.498 14.3098 3.918V4.836H0.809844V3.918C0.821844 3.51 0.830844 3.255 0.836844 3.153C0.842844 3.051 0.869844 2.964 0.917844 2.892C0.989844 2.712 1.13984 2.538 1.36784 2.37C1.46384 2.31 1.58984 2.268 1.74584 2.244C1.90184 2.22 2.13584 2.208 2.44784 2.208H3.04184L3.07784 2.37ZM14.3098 10.038L14.2918 14.502L14.2018 14.682C14.1538 14.802 14.0668 14.919 13.9408 15.033C13.8148 15.147 13.6978 15.222 13.5898 15.258C13.4818 15.294 13.1458 15.318 12.5818 15.33C11.8498 15.342 10.1788 15.348 7.56884 15.348C4.95884 15.348 3.28184 15.342 2.53784 15.33C1.97384 15.318 1.63784 15.294 1.52984 15.258C1.42184 15.222 1.30484 15.147 1.17884 15.033C1.05284 14.919 0.965844 14.802 0.917844 14.682L0.827844 14.502L0.809844 10.038V5.574H14.3098V10.038ZM2.77184 7.158C2.60384 7.218 2.47784 7.338 2.39384 7.518C2.35784 7.578 2.33684 7.653 2.33084 7.743C2.32484 7.833 2.32184 8.07 2.32184 8.454L2.33984 9.228L2.44784 9.39C2.50784 9.474 2.59784 9.552 2.71784 9.624C2.78984 9.672 2.86484 9.699 2.94284 9.705C3.02084 9.711 3.24884 9.714 3.62684 9.714C4.00484 9.714 4.22984 9.711 4.30184 9.705C4.37384 9.699 4.44584 9.675 4.51784 9.633C4.58984 9.591 4.68584 9.51 4.80584 9.39L4.91384 9.228V8.49C4.92584 8.082 4.92284 7.815 4.90484 7.689C4.88684 7.563 4.82984 7.446 4.73384 7.338C4.63784 7.23 4.52684 7.161 4.40084 7.131C4.27484 7.101 4.01384 7.092 3.61784 7.104H3.02384C2.90384 7.116 2.81984 7.134 2.77184 7.158ZM4.19384 8.4V8.958H3.05984V7.824H4.19384V8.4ZM6.71384 7.158C6.55784 7.206 6.42584 7.326 6.31784 7.518C6.29384 7.578 6.27884 7.653 6.27284 7.743C6.26684 7.833 6.26384 8.07 6.26384 8.454L6.28184 9.228L6.38984 9.39C6.43784 9.462 6.52184 9.54 6.64184 9.624C6.72584 9.672 6.80684 9.699 6.88484 9.705C6.96284 9.711 7.18784 9.714 7.55984 9.714C7.93184 9.714 8.15684 9.711 8.23484 9.705C8.31284 9.699 8.39684 9.669 8.48684 9.615C8.57684 9.561 8.65784 9.486 8.72984 9.39L8.83784 9.228L8.85584 8.49C8.86784 8.082 8.86484 7.815 8.84684 7.689C8.82884 7.563 8.77184 7.446 8.67584 7.338C8.57984 7.23 8.46884 7.161 8.34284 7.131C8.21684 7.101 7.95584 7.092 7.55984 7.104H6.96584C6.83384 7.116 6.74984 7.134 6.71384 7.158ZM8.11784 8.4V8.958H7.00184V7.824H8.11784V8.4ZM10.6558 7.158C10.4998 7.206 10.3678 7.326 10.2598 7.518C10.2358 7.59 10.2178 7.668 10.2058 7.752C10.1938 7.872 10.1938 8.106 10.2058 8.454L10.2238 9.228L10.3138 9.39C10.4338 9.51 10.5298 9.591 10.6018 9.633C10.6738 9.675 10.7488 9.699 10.8268 9.705C10.9048 9.711 11.1298 9.714 11.5018 9.714C11.8738 9.714 12.0988 9.711 12.1768 9.705C12.2548 9.699 12.3358 9.672 12.4198 9.624C12.5398 9.54 12.6238 9.462 12.6718 9.39L12.7798 9.228L12.7978 8.49C12.7978 8.082 12.7888 7.815 12.7708 7.689C12.7528 7.563 12.7018 7.452 12.6178 7.356C12.5098 7.236 12.3958 7.161 12.2758 7.131C12.1558 7.101 11.8978 7.092 11.5018 7.104H10.8898C10.7818 7.116 10.7038 7.134 10.6558 7.158ZM12.0598 8.4V8.958H10.9438V7.824H12.0598V8.4ZM2.87984 11.244C2.63984 11.316 2.47184 11.46 2.37584 11.676C2.33984 11.784 2.32184 12.072 2.32184 12.54C2.32184 12.948 2.33384 13.209 2.35784 13.323C2.38184 13.437 2.44484 13.539 2.54684 13.629C2.64884 13.719 2.75984 13.776 2.87984 13.8C2.99984 13.824 3.25484 13.836 3.64484 13.836C4.03484 13.836 4.28984 13.824 4.40984 13.8C4.52984 13.776 4.63784 13.71 4.73384 13.602C4.82984 13.494 4.88684 13.377 4.90484 13.251C4.92284 13.125 4.92584 12.858 4.91384 12.45V11.712L4.80584 11.55C4.73384 11.454 4.64384 11.376 4.53584 11.316C4.46384 11.268 4.38884 11.241 4.31084 11.235C4.23284 11.229 4.01984 11.226 3.67184 11.226C3.49184 11.214 3.32384 11.211 3.16784 11.217C3.01184 11.223 2.91584 11.232 2.87984 11.244ZM4.19384 12.54V13.098H3.05984V11.982H4.19384V12.54ZM6.82184 11.244C6.58184 11.316 6.41384 11.46 6.31784 11.676C6.29384 11.724 6.27584 11.808 6.26384 11.928V12.54C6.26384 12.948 6.27584 13.209 6.29984 13.323C6.32384 13.437 6.38684 13.542 6.48884 13.638C6.59084 13.734 6.69884 13.791 6.81284 13.809C6.92684 13.827 7.18184 13.836 7.57784 13.836C7.97384 13.836 8.23184 13.824 8.35184 13.8C8.47184 13.776 8.57984 13.71 8.67584 13.602C8.77184 13.494 8.82884 13.377 8.84684 13.251C8.86484 13.125 8.86784 12.858 8.85584 12.45L8.83784 11.712L8.72984 11.55C8.68184 11.466 8.59784 11.388 8.47784 11.316C8.39384 11.268 8.31584 11.241 8.24384 11.235C8.17184 11.229 7.96184 11.226 7.61384 11.226C7.43384 11.214 7.26584 11.211 7.10984 11.217C6.95384 11.223 6.85784 11.232 6.82184 11.244ZM8.11784 12.54V13.098H7.00184V11.982H8.11784V12.54ZM10.7638 11.244C10.5238 11.316 10.3498 11.46 10.2418 11.676C10.2298 11.724 10.2178 11.808 10.2058 11.928V12.54C10.2058 12.948 10.2178 13.209 10.2418 13.323C10.2658 13.437 10.3258 13.539 10.4218 13.629C10.5178 13.719 10.6258 13.776 10.7458 13.8C10.8658 13.824 11.1238 13.836 11.5198 13.836C11.9158 13.836 12.1708 13.824 12.2848 13.8C12.3988 13.776 12.5098 13.704 12.6178 13.584C12.7018 13.488 12.7528 13.377 12.7708 13.251C12.7888 13.125 12.7978 12.858 12.7978 12.45L12.7798 11.712L12.6718 11.55C12.6358 11.49 12.5578 11.418 12.4378 11.334L12.4198 11.316C12.3358 11.268 12.2548 11.241 12.1768 11.235C12.0988 11.229 11.8918 11.226 11.5558 11.226C11.3758 11.214 11.2078 11.211 11.0518 11.217C10.8958 11.223 10.7998 11.232 10.7638 11.244ZM12.0598 12.54V13.098H10.9438V11.982H12.0598V12.54Z" fill="#5B8C51"/>
</svg>
