<svg width="21" height="16" viewBox="0 0 21 16" fill="none" xmlns="http://www.w3.org/2000/svg">
<path d="M18.877 0.399975H2.34369C1.8548 0.399975 1.44368 0.566641 1.11035 0.899975C0.777018 1.23331 0.610352 1.64442 0.610352 2.13331V13.8666C0.610352 14.3555 0.777018 14.7666 1.11035 15.1C1.44368 15.4333 1.8548 15.6 2.34369 15.6H18.877C19.3659 15.6 19.777 15.4333 20.1104 15.1C20.4437 14.7666 20.6104 14.3555 20.6104 13.8666V2.13331C20.6104 1.64442 20.4437 1.23331 20.1104 0.899975C19.777 0.566641 19.3659 0.399975 18.877 0.399975ZM18.6104 1.53331L10.677 9.53331L2.61035 1.53331H18.6104ZM1.81035 13.6V2.39997L7.41035 7.99998L1.81035 13.6ZM2.61035 14.4666L8.27702 8.79998L10.2104 10.7333C10.3437 10.8666 10.4881 10.9333 10.6437 10.9333C10.7992 10.9333 10.9437 10.8666 11.077 10.7333L13.0104 8.79998L18.6104 14.4666H2.61035ZM19.4104 13.6L13.8104 7.99998L19.4104 2.39997V13.6Z" fill="#404A3D"/>
</svg>
