<svg width="56" height="59" viewBox="0 0 56 59" fill="none" xmlns="http://www.w3.org/2000/svg">
<path d="M40.9148 29.6648C40.9148 37.0259 34.9936 42.9645 27.7249 42.9645C20.4562 42.9645 14.535 37.0259 14.535 29.6648C14.535 22.3036 20.4562 16.365 27.7249 16.365C34.9936 16.365 40.9148 22.3036 40.9148 29.6648Z" fill="#F9FCF8" stroke="#348E2B" stroke-width="4.81016"/>
<path d="M33.9833 29.6643C33.9833 33.1706 31.1652 35.9842 27.7244 35.9842C24.2837 35.9842 21.4656 33.1706 21.4656 29.6643C21.4656 26.1581 24.2837 23.3445 27.7244 23.3445C31.1652 23.3445 33.9833 26.1581 33.9833 29.6643Z" fill="#F9FCF8" stroke="#70D767" stroke-width="4.81016"/>
<path d="M10.9351 13.9757C11.8404 14.6271 12.4648 15.548 12.7684 16.5697C11.7668 16.6114 10.745 16.3281 9.85775 15.6897C8.95239 15.0383 8.32798 14.1175 8.02445 13.0958C9.02601 13.054 10.0478 13.3374 10.9351 13.9757Z" fill="#70D767" stroke="#70D767" stroke-width="3.4983"/>
<path d="M6.36708 21.7169C7.40862 22.11 8.2479 22.8362 8.80344 23.7429C7.84618 24.0446 6.78574 24.0373 5.76426 23.6517C4.72272 23.2586 3.88344 22.5325 3.32789 21.6258C4.28516 21.3241 5.3456 21.3314 6.36708 21.7169Z" fill="#70D767" stroke="#70D767" stroke-width="3.4983"/>
<path d="M5.39197 30.6776C6.49605 30.5629 7.56453 30.8351 8.45944 31.3936C7.73346 32.0957 6.77772 32.5662 5.6902 32.6793C4.58612 32.794 3.51763 32.5218 2.62273 31.9633C3.34871 31.2612 4.30445 30.7907 5.39197 30.6776Z" fill="#70D767" stroke="#70D767" stroke-width="3.4983"/>
<path d="M6.30812 39.496C7.2937 38.9868 8.3833 38.8501 9.4139 39.0411C8.9892 39.9637 8.26598 40.7537 7.2912 41.2573C6.30562 41.7665 5.21602 41.9032 4.18542 41.7122C4.61012 40.7896 5.33334 39.9996 6.30812 39.496Z" fill="#70D767" stroke="#70D767" stroke-width="3.4983"/>
<path d="M11.5064 46.4754C12.4919 45.9663 13.5815 45.8296 14.6121 46.0206C14.1874 46.9432 13.4642 47.7332 12.4894 48.2368C11.5039 48.746 10.4143 48.8827 9.38366 48.6917C9.80836 47.7691 10.5316 46.979 11.5064 46.4754Z" fill="#70D767" stroke="#70D767" stroke-width="3.4983"/>
<path d="M20.1565 52.3822C19.9276 53.4758 20.0846 54.5742 20.5423 55.5287C21.3117 54.875 21.8766 53.9669 22.102 52.8895C22.3309 51.7959 22.174 50.6975 21.7162 49.743C20.9468 50.3967 20.3819 51.3048 20.1565 52.3822Z" fill="#70D767" stroke="#70D767" stroke-width="3.4983"/>
<path d="M29.4866 52.543C29.8831 53.5836 30.6028 54.4164 31.4948 54.9661C31.7903 53.9923 31.7751 52.9166 31.3823 51.8856C30.9859 50.845 30.2662 50.0122 29.3741 49.4625C29.0787 50.4363 29.0939 51.512 29.4866 52.543Z" fill="#70D767" stroke="#70D767" stroke-width="3.4983"/>
<path d="M39.0539 50.3148C39.689 51.2271 40.5872 51.8588 41.5841 52.1742C41.6362 51.1568 41.3622 50.1163 40.7325 49.2118C40.0975 48.2995 39.1993 47.6677 38.2024 47.3524C38.1503 48.3698 38.4243 49.4103 39.0539 50.3148Z" fill="#70D767" stroke="#70D767" stroke-width="3.4983"/>
<path d="M45.8562 44.5747C46.7909 45.1726 47.8626 45.4093 48.9053 45.3148C48.5663 44.3562 47.9178 43.5022 46.9926 42.9104C46.058 42.3125 44.9862 42.0758 43.9435 42.1703C44.2825 43.1289 44.931 43.9829 45.8562 44.5747Z" fill="#70D767" stroke="#70D767" stroke-width="3.4983"/>
<path d="M50.2612 37.9645C51.3434 38.2093 52.435 38.0661 53.3877 37.6189C52.7483 36.8346 51.8534 36.2534 50.786 36.0119C49.7037 35.7672 48.6122 35.9103 47.6594 36.3576C48.2988 37.1418 49.1937 37.7231 50.2612 37.9645Z" fill="#70D767" stroke="#70D767" stroke-width="3.4983"/>
<path d="M50.5852 28.8747C51.6898 28.7531 52.6795 28.2595 53.4392 27.5213C52.5844 26.9898 51.5535 26.7326 50.468 26.8521C49.3633 26.9737 48.3736 27.4673 47.6139 28.2055C48.4688 28.737 49.4996 28.9942 50.5852 28.8747Z" fill="#70D767" stroke="#70D767" stroke-width="3.4983"/>
<path d="M48.7211 21.2248C49.7682 20.8471 50.6179 20.1335 51.1865 19.2351C50.2337 18.9193 49.1732 18.911 48.1462 19.2814C47.0991 19.6591 46.2494 20.3727 45.6808 21.2711C46.6336 21.5869 47.6941 21.5952 48.7211 21.2248Z" fill="#70D767" stroke="#70D767" stroke-width="3.4983"/>
<path d="M18.936 8.03919C19.6428 8.90405 20.0091 9.9555 20.04 11.0205C19.0612 10.7998 18.1465 10.2595 17.4533 9.41125C16.7464 8.54639 16.3801 7.49495 16.3492 6.42994C17.328 6.65068 18.2428 7.19097 18.936 8.03919Z" fill="#70D767" stroke="#70D767" stroke-width="3.4983"/>
<path d="M27.2956 5.31721C27.494 6.41666 27.3068 7.50987 26.8231 8.45087C26.0719 7.77566 25.5323 6.85186 25.3367 5.76831C25.1383 4.66886 25.3255 3.57565 25.8091 2.63465C26.5604 3.30986 27.1 4.23366 27.2956 5.31721Z" fill="#70D767" stroke="#70D767" stroke-width="3.4983"/>
<path d="M36.82 7.25096C36.4955 8.31679 35.834 9.19773 34.9811 9.80808C34.62 8.85737 34.5618 7.78344 34.8831 6.72795C35.2077 5.66212 35.8691 4.78117 36.7221 4.17082C37.0832 5.12154 37.1414 6.19547 36.82 7.25096Z" fill="#70D767" stroke="#70D767" stroke-width="3.4983"/>
<path d="M44.0543 13.7746C43.2741 14.5648 42.2819 15.0333 41.2459 15.1731C41.3666 14.1618 41.8125 13.1837 42.5858 12.4005C43.3659 11.6103 44.3581 11.1418 45.3942 11.002C45.2735 12.0133 44.8276 12.9913 44.0543 13.7746Z" fill="#70D767" stroke="#70D767" stroke-width="3.4983"/>
</svg>
