<svg width="64" height="60" viewBox="0 0 64 60" fill="none" xmlns="http://www.w3.org/2000/svg">
<path d="M53.3333 32.7778C53.3333 50.5555 37.2149 55 29.1555 55C22.1037 55 8 50.5555 8 32.7778C8 25.8238 11.8973 21.1535 15.6266 18.4864C17.7024 17.0017 20.3477 18.4799 20.6138 20.915L20.8427 23.0096C21.1214 25.5603 23.5982 27.6515 25.8915 26.2543C30.3835 23.5176 32 16.938 32 13.3334V12.5243C32 8.95 35.8501 6.64963 38.9395 8.74418C45.7741 13.3782 53.3333 21.4607 53.3333 32.7778Z" stroke="#1C274C" stroke-width="3.75"/>
<path d="M21.333 46.1113C21.333 53.2223 27.9701 55 31.2885 55C34.1922 55 39.9997 53.2223 39.9997 46.1113C39.9997 43.3588 38.4282 41.5005 36.9074 40.4283C35.8461 39.68 34.3538 40.352 33.9887 41.549C33.513 43.1093 31.7938 44.09 30.9181 42.6898C30.1173 41.4095 30.1173 39.4893 30.1173 38.3335C30.1173 36.742 28.4101 35.7118 27.0367 36.6473C24.2836 38.5228 21.333 41.7038 21.333 46.1113Z" stroke="#1C274C" stroke-width="3.75"/>
</svg>
