<svg width="50" height="50" viewBox="0 0 50 50" fill="none" xmlns="http://www.w3.org/2000/svg">
<path d="M16.4268 16.5346L14.4326 16.6874L16.4177 42.5951L18.4119 42.4423L16.4268 16.5346Z" fill="black"/>
<path d="M26 16.61H24V42.517H26V16.61Z" fill="black"/>
<path d="M33.5717 16.5349L31.5918 42.4424L33.586 42.5948L35.5659 16.6873L33.5717 16.5349Z" fill="black"/>
<path d="M45.5634 7.12105H40.3662V2.80079C40.3662 1.25684 39.1104 0 37.5664 0H12.4327C10.8887 0 9.63289 1.25684 9.63289 2.80079V7.12105H4.43554H1.49805V9.12102H4.68335L9.24807 45.958C9.53377 48.2627 11.5005 50 13.8227 50H36.1763C38.4986 50 40.4654 48.2627 40.751 45.958L45.3157 9.12112H48.5015V7.12105H45.5634ZM11.6329 2.80079C11.6329 2.3594 11.9918 1.99997 12.4327 1.99997H37.5664C38.0073 1.99997 38.3662 2.3593 38.3662 2.80079V7.12105H11.6329V2.80079ZM38.7666 45.7119C38.6045 47.0166 37.4912 48 36.1762 48H13.8227C12.5078 48 11.3945 47.0166 11.2324 45.7119L6.69825 9.12112H9.63279H40.3662H43.3007L38.7666 45.7119Z" fill="black"/>
</svg>
