<svg width="50" height="50" viewBox="0 0 50 50" fill="none" xmlns="http://www.w3.org/2000/svg">
<path d="M49.4141 15.8203H34.1797V0.585938H35.3532V13.82L49.0007 0.172526L49.8307 1.00098L36.18 14.6484H49.4141V15.8203ZM33.724 25C33.724 20.1888 29.8096 16.276 25 16.276C20.1888 16.276 16.276 20.1888 16.276 25C16.276 29.8096 20.1888 33.724 25 33.724C29.8096 33.724 33.724 29.8096 33.724 25ZM32.5521 25C32.5521 29.165 29.165 32.5521 25 32.5521C20.835 32.5521 17.4479 29.165 17.4479 25C17.4479 20.835 20.8366 17.4479 25 17.4479C29.1634 17.4479 32.5521 20.835 32.5521 25ZM50 25C50 22.7978 49.6891 20.555 49.0739 18.3333L47.946 18.6442C48.5303 20.765 48.8281 22.902 48.8281 24.9984C48.8281 38.1364 38.1396 48.8265 25 48.8265C11.8603 48.8281 1.17188 38.138 1.17188 25C1.17188 11.8603 11.8603 1.17188 25 1.17188C27.0947 1.17188 29.2334 1.46973 31.3542 2.05566L31.665 0.926107C29.4417 0.3125 27.2005 0 25 0C11.2142 0 0 11.2142 0 25C0 38.7858 11.2142 50 25 50C38.7858 50 50 38.7858 50 25ZM41.862 25C41.862 22.6676 41.3867 20.3971 40.4492 18.2552L39.375 18.724C40.2474 20.7194 40.6901 22.8304 40.6901 25C40.6901 33.6507 33.6523 40.6901 25 40.6901C16.3477 40.6901 9.3099 33.6507 9.3099 25C9.3099 16.3493 16.3493 9.3099 25 9.3099C27.1696 9.3099 29.2822 9.7526 31.2744 10.625L31.7448 9.55241C29.6012 8.61328 27.334 8.13802 25 8.13802C15.7031 8.13802 8.13802 15.7031 8.13802 25C8.13802 34.2985 15.7015 41.862 25 41.862C34.2985 41.862 41.862 34.2985 41.862 25ZM25 23.3724C24.1016 23.3724 23.3724 24.1016 23.3724 25C23.3724 25.8984 24.1016 26.6276 25 26.6276C25.8984 26.6276 26.6276 25.8984 26.6276 25C26.6276 24.1016 25.8984 23.3724 25 23.3724Z" fill="black"/>
</svg>
