<svg width="14" height="13" viewBox="0 0 14 13" fill="none" xmlns="http://www.w3.org/2000/svg">
<path d="M9.04742 6.50006C9.04742 5.91006 8.84242 5.40506 8.43242 4.98506C8.02242 4.56506 7.51742 4.35506 6.91742 4.35506C6.31742 4.35506 5.81242 4.56506 5.40242 4.98506C4.99242 5.40506 4.78242 5.91006 4.77242 6.50006C4.76242 7.09006 4.97242 7.59506 5.40242 8.01506C5.83242 8.43506 6.33742 8.64506 6.91742 8.64506C7.49742 8.64506 8.00242 8.43506 8.43242 8.01506C8.86242 7.59506 9.06742 7.09006 9.04742 6.50006ZM10.2024 6.50006C10.2024 7.41006 9.88242 8.19006 9.24242 8.84006C8.60242 9.49006 7.82742 9.81006 6.91742 9.80006C6.00742 9.79006 5.22742 9.47006 4.57742 8.84006C3.92742 8.21006 3.60742 7.43006 3.61742 6.50006C3.62742 5.57006 3.94742 4.79006 4.57742 4.16006C5.20742 3.53006 5.98742 3.21006 6.91742 3.20006C7.84742 3.19006 8.62242 3.51006 9.24242 4.16006C9.86242 4.81006 10.1824 5.59006 10.2024 6.50006ZM11.1174 3.06506C11.1174 3.27506 11.0424 3.45506 10.8924 3.60506C10.7424 3.75506 10.5574 3.83006 10.3374 3.83006C10.1174 3.83006 9.93742 3.75506 9.79742 3.60506C9.65742 3.45506 9.58242 3.27506 9.57242 3.06506C9.56242 2.85506 9.63742 2.67506 9.79742 2.52506C9.95742 2.37506 10.1374 2.30006 10.3374 2.30006C10.5374 2.30006 10.7224 2.37506 10.8924 2.52506C11.0624 2.67506 11.1374 2.85506 11.1174 3.06506ZM6.91742 1.22006C6.87742 1.22006 6.66242 1.22006 6.27242 1.22006H5.38742C5.18742 1.22006 4.91742 1.23006 4.57742 1.25006C4.23742 1.27006 3.95242 1.29506 3.72242 1.32506C3.49242 1.35506 3.29242 1.41006 3.12242 1.49006C2.84242 1.60006 2.59742 1.76006 2.38742 1.97006C2.17742 2.18006 2.01242 2.42506 1.89242 2.70506C1.83242 2.86506 1.78242 3.06506 1.74242 3.30506C1.70242 3.54506 1.67242 3.83506 1.65242 4.17506C1.63242 4.51506 1.62742 4.78006 1.63742 4.97006C1.64742 5.16006 1.64742 5.45506 1.63742 5.85506C1.62742 6.25506 1.62742 6.47006 1.63742 6.50006C1.64742 6.53006 1.64742 6.74506 1.63742 7.14506C1.62742 7.54506 1.62742 7.84006 1.63742 8.03006C1.64742 8.22006 1.65242 8.48506 1.65242 8.82506C1.65242 9.16506 1.68242 9.45506 1.74242 9.69506L1.89242 10.2951C2.01242 10.5751 2.17742 10.8201 2.38742 11.0301C2.59742 11.2401 2.84242 11.4001 3.12242 11.5101C3.28242 11.5701 3.48242 11.6251 3.72242 11.6751C3.96242 11.7251 4.24742 11.7501 4.57742 11.7501C4.90742 11.7501 5.17742 11.7601 5.38742 11.7801C5.59742 11.8001 5.89242 11.8001 6.27242 11.7801C6.65242 11.7601 6.86742 11.7601 6.91742 11.7801C6.96742 11.8001 7.17742 11.8001 7.54742 11.7801C7.91742 11.7601 8.21242 11.7601 8.43242 11.7801C8.65242 11.8001 8.92242 11.7901 9.24242 11.7501C9.56242 11.7101 9.85242 11.6851 10.1124 11.6751C10.3724 11.6651 10.5674 11.6101 10.6974 11.5101C10.9774 11.4001 11.2274 11.2401 11.4474 11.0301C11.6674 10.8201 11.8274 10.5751 11.9274 10.2951C11.9874 10.1351 12.0374 9.93506 12.0774 9.69506C12.1174 9.45506 12.1474 9.16506 12.1674 8.82506C12.1874 8.48506 12.1924 8.22006 12.1824 8.03006C12.1724 7.84006 12.1724 7.54506 12.1824 7.14506C12.1924 6.74506 12.1924 6.53006 12.1824 6.50006C12.1724 6.47006 12.1724 6.25506 12.1824 5.85506C12.1924 5.45506 12.1924 5.16006 12.1824 4.97006C12.1724 4.78006 12.1674 4.51506 12.1674 4.17506C12.1674 3.83506 12.1374 3.54506 12.0774 3.30506L11.9274 2.70506C11.8174 2.42506 11.6574 2.18006 11.4474 1.97006C11.2374 1.76006 10.9874 1.60006 10.6974 1.49006C10.5374 1.43006 10.3424 1.37506 10.1124 1.32506C9.88242 1.27506 9.59242 1.25006 9.24242 1.25006C8.89242 1.25006 8.62242 1.24006 8.43242 1.22006C8.24242 1.20006 7.94742 1.20006 7.54742 1.22006C7.14742 1.24006 6.93742 1.24006 6.91742 1.22006ZM13.3374 6.50006C13.3374 7.78006 13.3224 8.66506 13.2924 9.15506C13.2424 10.3151 12.8974 11.2151 12.2574 11.8551C11.6174 12.4951 10.7224 12.8401 9.57242 12.8901C9.07242 12.9201 8.18742 12.9351 6.91742 12.9351C5.64742 12.9351 4.76242 12.9201 4.26242 12.8901C3.10242 12.8301 2.20242 12.4851 1.56242 11.8551C0.922422 11.2251 0.577422 10.3251 0.527422 9.15506C0.497422 8.66506 0.482422 7.78006 0.482422 6.50006C0.482422 5.22006 0.497422 4.33506 0.527422 3.84506C0.577422 2.68506 0.922422 1.78506 1.56242 1.14506C2.20242 0.505059 3.10242 0.160059 4.26242 0.110059C4.75242 0.0800591 5.63742 0.0650587 6.91742 0.0650587C8.19742 0.0650587 9.08242 0.0800591 9.57242 0.110059C10.7324 0.170059 11.6274 0.515059 12.2574 1.14506C12.8874 1.77506 13.2324 2.67506 13.2924 3.84506C13.3224 4.33506 13.3374 5.22006 13.3374 6.50006Z" fill="#5B8C51"/>
</svg>
