<svg width="8" height="13" viewBox="0 0 8 13" fill="none" xmlns="http://www.w3.org/2000/svg">
<path d="M0.550104 6.20734C0.550104 6.1046 0.586799 6.01653 0.660188 5.94314L6.40657 0.196754C6.47996 0.123365 6.56803 0.0866699 6.67078 0.0866699C6.77352 0.0866699 6.86893 0.123365 6.957 0.196754L7.57347 0.813225C7.66153 0.901292 7.70557 0.996698 7.70557 1.09944C7.70557 1.20219 7.66153 1.29759 7.57347 1.38566L2.75178 6.20734L7.57347 11.051C7.66153 11.1244 7.70557 11.2125 7.70557 11.3152C7.70557 11.418 7.66153 11.5134 7.57347 11.6015L6.957 12.2179C6.88361 12.306 6.7882 12.35 6.67078 12.35C6.55335 12.35 6.46529 12.306 6.40657 12.2179L0.660188 6.49356C0.586799 6.42017 0.550104 6.32477 0.550104 6.20734Z" fill="#404A3D"/>
</svg>
