<svg width="60" height="60" viewBox="0 0 60 60" fill="none" xmlns="http://www.w3.org/2000/svg">
<path d="M30 42.5V37.5" stroke="#1C274C" stroke-width="3.75" stroke-linecap="round"/>
<path d="M34.3309 35C33.4664 36.4945 31.8507 37.5 29.9999 37.5C28.1492 37.5 26.5334 36.4945 25.6689 35" stroke="#1C274C" stroke-width="3.75" stroke-linecap="round"/>
<path d="M36.25 48.75H23.75M36.25 48.75C36.25 46.9662 36.25 46.0743 36.3453 45.4825C36.6523 43.574 36.706 43.4538 37.923 41.9518C38.3003 41.4863 39.7012 40.2317 42.503 37.723C46.3372 34.2897 48.75 29.3015 48.75 23.75C48.75 21.5585 48.374 19.4549 47.683 17.5M36.25 48.75C36.25 51.0865 36.25 52.2548 35.7475 53.125C35.4185 53.695 34.945 54.1685 34.375 54.4975C33.5048 55 32.3365 55 30 55C27.6635 55 26.4952 55 25.625 54.4975C25.055 54.1685 24.5815 53.695 24.2524 53.125C23.75 52.2548 23.75 51.0865 23.75 48.75M23.75 48.75C23.75 46.9662 23.75 46.0743 23.6548 45.4825C23.3477 43.574 23.2941 43.4538 22.0771 41.9518C21.6997 41.4863 20.2986 40.2317 17.4969 37.723C13.6628 34.2897 11.25 29.3015 11.25 23.75C11.25 13.3947 19.6447 5 30 5C33.4093 5 36.6058 5.90985 39.3605 7.5" stroke="#1C274C" stroke-width="3.75" stroke-linecap="round"/>
</svg>
