<svg width="14" height="14" viewBox="0 0 14 14" fill="none" xmlns="http://www.w3.org/2000/svg">
<path d="M3.31793 13.125H0.60293V4.365H3.31793V13.125ZM1.95293 3.165C1.67293 3.165 1.41043 3.0925 1.16543 2.9475C0.92043 2.8025 0.72793 2.61 0.58793 2.37C0.44793 2.13 0.37793 1.865 0.37793 1.575C0.37793 1.285 0.44793 1.02 0.58793 0.780001C0.72793 0.540001 0.91793 0.35 1.15793 0.21C1.39793 0.0700001 1.66293 0 1.95293 0C2.24293 0 2.50793 0.0700001 2.74793 0.21C2.98793 0.35 3.17793 0.540001 3.31793 0.780001C3.45793 1.02 3.52793 1.285 3.52793 1.575C3.52793 1.865 3.45793 2.13 3.31793 2.37C3.17793 2.61 2.98543 2.8025 2.74043 2.9475C2.49543 3.0925 2.23293 3.165 1.95293 3.165ZM13.5029 13.125H10.7879V8.865C10.7879 8.405 10.7679 8.055 10.7279 7.815C10.6679 7.425 10.5429 7.125 10.3529 6.915C10.1329 6.665 9.80793 6.54 9.37793 6.54C8.72793 6.54 8.27793 6.77 8.02793 7.23C7.83793 7.58 7.74293 8.1 7.74293 8.79V13.125H5.02793V4.365H7.63793V5.55H7.66793C7.86793 5.17 8.17793 4.85 8.59793 4.59C9.07793 4.29 9.62793 4.14 10.2479 4.14C11.1179 4.14 11.8079 4.325 12.3179 4.695C12.7679 5.025 13.0829 5.52 13.2629 6.18C13.4229 6.73 13.5029 7.44 13.5029 8.31V13.125Z" fill="#5B8C51"/>
</svg>
