<svg width="34" height="46" viewBox="0 0 34 46" fill="none" xmlns="http://www.w3.org/2000/svg">
<path d="M17.3045 0.5C14.3052 0.5 11.5308 1.25 8.98135 2.75C6.43192 4.25 4.40737 6.275 2.9077 8.825C1.40804 11.375 0.658203 14.15 0.658203 17.15C0.658203 18.35 0.908148 19.75 1.40804 21.35C1.60799 22.15 1.85794 22.85 2.15787 23.45C2.65776 24.75 3.25763 25.95 3.95747 27.05L15.3549 44.45C15.8548 45.15 16.5047 45.5 17.3045 45.5C18.1043 45.5 18.7542 45.15 19.2541 44.45L30.6515 27.05C31.3514 25.95 31.9513 24.75 32.4511 23.45C32.7511 22.85 33.001 22.15 33.201 21.35C33.7009 19.75 33.9508 18.35 33.9508 17.15C33.9508 14.15 33.201 11.375 31.7013 8.825C30.2016 6.275 28.1771 4.25 25.6277 2.75C23.0782 1.25 20.3038 0.5 17.3045 0.5ZM30.6515 22.7C30.2516 23.9 29.7018 25 29.0019 26L17.6044 43.25C17.5045 43.45 17.4045 43.55 17.3045 43.55C17.2045 43.55 17.1046 43.45 17.0046 43.25L5.6071 26C4.90726 25 4.35738 23.9 3.95747 22.7C3.65754 22.2 3.40759 21.6 3.20764 20.9C2.80773 19.5 2.60777 18.25 2.60777 17.15C2.60777 14.45 3.28262 11.975 4.63232 9.725C5.98202 7.475 7.75663 5.7 9.95614 4.4C12.1557 3.1 14.6051 2.45 17.3045 2.45C20.0039 2.45 22.4534 3.1 24.6529 4.4C26.8524 5.7 28.627 7.475 29.9767 9.725C31.3264 11.975 32.0012 14.45 32.0012 17.15C32.0012 18.25 31.8013 19.5 31.4014 20.9C31.1014 21.7 30.8515 22.3 30.6515 22.7ZM17.3045 8.3C15.7049 8.3 14.2302 8.7 12.8805 9.5C11.5308 10.3 10.456 11.375 9.65621 12.725C8.85638 14.075 8.45647 15.55 8.45647 17.15C8.45647 18.75 8.85638 20.225 9.65621 21.575C10.456 22.925 11.5308 23.975 12.8805 24.725C14.2302 25.475 15.7049 25.85 17.3045 25.85C18.9042 25.85 20.3788 25.475 21.7285 24.725C23.0782 23.975 24.153 22.925 24.9528 21.575C25.7526 20.225 26.1525 18.75 26.1525 17.15C26.1525 15.55 25.7526 14.075 24.9528 12.725C24.153 11.375 23.0782 10.3 21.7285 9.5C20.3788 8.7 18.9042 8.3 17.3045 8.3ZM17.3045 23.9C15.4049 23.9 13.7803 23.25 12.4306 21.95C11.0809 20.65 10.406 19.05 10.406 17.15C10.406 15.25 11.0809 13.625 12.4306 12.275C13.7803 10.925 15.4049 10.25 17.3045 10.25C19.2041 10.25 20.8287 10.925 22.1784 12.275C23.5281 13.625 24.203 15.25 24.203 17.15C24.203 19.05 23.5281 20.65 22.1784 21.95C20.8287 23.25 19.2041 23.9 17.3045 23.9Z" fill="#404A3D"/>
</svg>
