<svg width="228" height="63" viewBox="0 0 228 63" fill="none" xmlns="http://www.w3.org/2000/svg">
<path d="M50.9148 31.6648C50.9148 39.0259 44.9936 44.9645 37.7249 44.9645C30.4562 44.9645 24.535 39.0259 24.535 31.6648C24.535 24.3036 30.4562 18.365 37.7249 18.365C44.9936 18.365 50.9148 24.3036 50.9148 31.6648Z" fill="#F9FCF8" stroke="#348E2B" stroke-width="4.81016"/>
<path d="M43.9833 31.6643C43.9833 35.1706 41.1652 37.9842 37.7244 37.9842C34.2837 37.9842 31.4656 35.1706 31.4656 31.6643C31.4656 28.1581 34.2837 25.3445 37.7244 25.3445C41.1652 25.3445 43.9833 28.1581 43.9833 31.6643Z" fill="#F9FCF8" stroke="#70D767" stroke-width="4.81016"/>
<path d="M20.9351 15.9757C21.8404 16.6271 22.4648 17.548 22.7684 18.5697C21.7668 18.6114 20.745 18.3281 19.8577 17.6897C18.9524 17.0383 18.328 16.1175 18.0245 15.0958C19.026 15.054 20.0478 15.3374 20.9351 15.9757Z" fill="#70D767" stroke="#70D767" stroke-width="3.4983"/>
<path d="M16.3671 23.7169C17.4086 24.11 18.2479 24.8362 18.8034 25.7429C17.8462 26.0446 16.7857 26.0373 15.7643 25.6517C14.7227 25.2586 13.8834 24.5325 13.3279 23.6258C14.2852 23.3241 15.3456 23.3314 16.3671 23.7169Z" fill="#70D767" stroke="#70D767" stroke-width="3.4983"/>
<path d="M15.392 32.6776C16.496 32.5629 17.5645 32.8351 18.4594 33.3936C17.7335 34.0957 16.7777 34.5662 15.6902 34.6793C14.5861 34.794 13.5176 34.5218 12.6227 33.9633C13.3487 33.2612 14.3044 32.7907 15.392 32.6776Z" fill="#70D767" stroke="#70D767" stroke-width="3.4983"/>
<path d="M16.3081 41.496C17.2937 40.9868 18.3833 40.8501 19.4139 41.0411C18.9892 41.9637 18.266 42.7537 17.2912 43.2573C16.3056 43.7665 15.216 43.9032 14.1854 43.7122C14.6101 42.7896 15.3333 41.9996 16.3081 41.496Z" fill="#70D767" stroke="#70D767" stroke-width="3.4983"/>
<path d="M21.5064 48.4754C22.4919 47.9663 23.5815 47.8296 24.6121 48.0206C24.1874 48.9432 23.4642 49.7332 22.4894 50.2368C21.5039 50.746 20.4143 50.8827 19.3837 50.6917C19.8084 49.7691 20.5316 48.979 21.5064 48.4754Z" fill="#70D767" stroke="#70D767" stroke-width="3.4983"/>
<path d="M30.1565 54.3822C29.9276 55.4758 30.0846 56.5742 30.5423 57.5287C31.3117 56.875 31.8766 55.9669 32.102 54.8895C32.3309 53.7959 32.174 52.6975 31.7162 51.743C30.9468 52.3967 30.3819 53.3048 30.1565 54.3822Z" fill="#70D767" stroke="#70D767" stroke-width="3.4983"/>
<path d="M39.4866 54.543C39.8831 55.5836 40.6028 56.4164 41.4948 56.9661C41.7903 55.9923 41.7751 54.9166 41.3823 53.8856C40.9859 52.845 40.2662 52.0122 39.3741 51.4625C39.0787 52.4363 39.0939 53.512 39.4866 54.543Z" fill="#70D767" stroke="#70D767" stroke-width="3.4983"/>
<path d="M49.0539 52.3148C49.689 53.2271 50.5872 53.8588 51.5841 54.1742C51.6362 53.1568 51.3622 52.1163 50.7325 51.2118C50.0975 50.2995 49.1993 49.6677 48.2024 49.3524C48.1503 50.3698 48.4243 51.4103 49.0539 52.3148Z" fill="#70D767" stroke="#70D767" stroke-width="3.4983"/>
<path d="M55.8562 46.5747C56.7909 47.1726 57.8626 47.4093 58.9053 47.3148C58.5663 46.3562 57.9178 45.5022 56.9926 44.9104C56.058 44.3125 54.9862 44.0758 53.9435 44.1703C54.2825 45.1289 54.931 45.9829 55.8562 46.5747Z" fill="#70D767" stroke="#70D767" stroke-width="3.4983"/>
<path d="M60.2612 39.9645C61.3434 40.2093 62.435 40.0661 63.3877 39.6189C62.7483 38.8346 61.8534 38.2534 60.786 38.0119C59.7037 37.7672 58.6122 37.9103 57.6594 38.3576C58.2988 39.1418 59.1937 39.7231 60.2612 39.9645Z" fill="#70D767" stroke="#70D767" stroke-width="3.4983"/>
<path d="M60.5852 30.8747C61.6898 30.7531 62.6795 30.2595 63.4392 29.5213C62.5844 28.9898 61.5535 28.7326 60.468 28.8521C59.3633 28.9737 58.3736 29.4673 57.6139 30.2055C58.4688 30.737 59.4996 30.9942 60.5852 30.8747Z" fill="#70D767" stroke="#70D767" stroke-width="3.4983"/>
<path d="M58.7211 23.2248C59.7682 22.8471 60.6179 22.1335 61.1865 21.2351C60.2337 20.9193 59.1732 20.911 58.1462 21.2814C57.0991 21.6591 56.2494 22.3727 55.6808 23.2711C56.6336 23.5869 57.6941 23.5952 58.7211 23.2248Z" fill="#70D767" stroke="#70D767" stroke-width="3.4983"/>
<path d="M28.936 10.0392C29.6428 10.9041 30.0091 11.9555 30.04 13.0205C29.0612 12.7998 28.1465 12.2595 27.4533 11.4113C26.7464 10.5464 26.3801 9.49495 26.3492 8.42994C27.328 8.65068 28.2428 9.19097 28.936 10.0392Z" fill="#70D767" stroke="#70D767" stroke-width="3.4983"/>
<path d="M37.2956 7.31721C37.494 8.41666 37.3068 9.50987 36.8231 10.4509C36.0719 9.77566 35.5323 8.85186 35.3367 7.76831C35.1383 6.66886 35.3255 5.57565 35.8091 4.63465C36.5604 5.30986 37.1 6.23366 37.2956 7.31721Z" fill="#70D767" stroke="#70D767" stroke-width="3.4983"/>
<path d="M46.82 9.25096C46.4955 10.3168 45.834 11.1977 44.9811 11.8081C44.62 10.8574 44.5618 9.78344 44.8831 8.72795C45.2077 7.66212 45.8691 6.78117 46.7221 6.17082C47.0832 7.12154 47.1414 8.19547 46.82 9.25096Z" fill="#70D767" stroke="#70D767" stroke-width="3.4983"/>
<path d="M54.0543 15.7746C53.2741 16.5648 52.2819 17.0333 51.2459 17.1731C51.3666 16.1618 51.8125 15.1837 52.5858 14.4005C53.3659 13.6103 54.3581 13.1418 55.3942 13.002C55.2735 14.0133 54.8276 14.9913 54.0543 15.7746Z" fill="#70D767" stroke="#70D767" stroke-width="3.4983"/>
<path d="M73.97 20.646L74.204 20.412H78.704V24.372C78.704 24.876 78.71 25.308 78.722 25.668C78.734 26.028 78.74 26.454 78.74 26.946V38.844C78.74 39.24 78.734 39.606 78.722 39.942C78.71 40.266 78.704 40.638 78.704 41.058V45.054H76.742C75.878 45.054 75.2 44.802 74.708 44.298C74.216 43.782 73.97 43.08 73.97 42.192V20.646ZM87.182 30.636C87.278 30.936 87.344 31.272 87.38 31.644C87.428 32.016 87.452 32.334 87.452 32.598C87.452 32.886 87.428 33.216 87.38 33.588C87.344 33.948 87.278 34.284 87.182 34.596H81.08C80.792 34.596 80.402 34.596 79.91 34.596C79.418 34.584 78.914 34.578 78.398 34.578C77.882 34.566 77.438 34.554 77.066 34.542V30.69C77.438 30.678 77.882 30.672 78.398 30.672C78.914 30.66 79.418 30.654 79.91 30.654C80.402 30.642 80.792 30.636 81.08 30.636H87.182ZM89.234 20.412C89.306 20.772 89.348 21.114 89.36 21.438C89.372 21.75 89.378 22.044 89.378 22.32C89.378 22.596 89.348 22.932 89.288 23.328C89.228 23.724 89.132 24.108 89 24.48H81.08C80.792 24.48 80.402 24.48 79.91 24.48C79.418 24.468 78.914 24.456 78.398 24.444C77.882 24.432 77.438 24.42 77.066 24.408V20.412H89.234ZM90.026 41.004C90.026 42.384 89.81 43.404 89.378 44.064C88.958 44.724 88.118 45.054 86.858 45.054H77.066V41.184C77.75 41.148 78.41 41.112 79.046 41.076C79.682 41.028 80.408 41.004 81.224 41.004H90.026ZM102.773 34.56C102.785 33.708 102.725 32.952 102.593 32.292C102.461 31.632 102.203 31.116 101.819 30.744C101.447 30.36 100.889 30.168 100.145 30.168C99.1614 30.168 98.4354 30.654 97.9674 31.626C97.4994 32.586 97.2654 34.086 97.2654 36.126C97.2654 38.166 97.5714 39.618 98.1834 40.482C98.8074 41.334 99.6894 41.76 100.829 41.76C101.597 41.76 102.335 41.592 103.043 41.256C103.751 40.92 104.399 40.536 104.987 40.104C105.383 40.332 105.767 40.716 106.139 41.256C106.511 41.796 106.751 42.306 106.859 42.786C106.043 43.602 105.035 44.256 103.835 44.748C102.647 45.24 101.399 45.486 100.091 45.486C98.7954 45.486 97.6674 45.258 96.7074 44.802C95.7474 44.334 94.9494 43.68 94.3134 42.84C93.6894 41.988 93.2214 40.992 92.9094 39.852C92.5974 38.712 92.4414 37.47 92.4414 36.126C92.4414 34.422 92.6574 32.97 93.0894 31.77C93.5334 30.558 94.1274 29.574 94.8714 28.818C95.6274 28.062 96.4674 27.51 97.3914 27.162C98.3274 26.802 99.2754 26.622 100.235 26.622C101.291 26.622 102.239 26.778 103.079 27.09C103.919 27.39 104.633 27.81 105.221 28.35C105.809 28.878 106.253 29.484 106.553 30.168C106.865 30.852 107.021 31.572 107.021 32.328C107.021 33.12 106.811 33.72 106.391 34.128C105.983 34.536 105.413 34.74 104.681 34.74C103.949 34.74 103.313 34.68 102.773 34.56ZM125.303 36.054C125.303 37.938 124.997 39.594 124.385 41.022C123.773 42.438 122.867 43.536 121.667 44.316C120.479 45.096 119.009 45.486 117.257 45.486C115.481 45.486 113.993 45.09 112.793 44.298C111.605 43.506 110.711 42.402 110.111 40.986C109.511 39.57 109.211 37.926 109.211 36.054C109.211 34.182 109.511 32.538 110.111 31.122C110.723 29.706 111.623 28.602 112.811 27.81C114.011 27.018 115.493 26.622 117.257 26.622C119.021 26.622 120.503 27.024 121.703 27.828C122.903 28.62 123.803 29.724 124.403 31.14C125.003 32.544 125.303 34.182 125.303 36.054ZM114.035 36.054C114.035 37.11 114.119 38.088 114.287 38.988C114.467 39.876 114.791 40.596 115.259 41.148C115.727 41.688 116.393 41.958 117.257 41.958C118.145 41.958 118.817 41.688 119.273 41.148C119.729 40.596 120.041 39.876 120.209 38.988C120.377 38.088 120.461 37.11 120.461 36.054C120.461 35.01 120.377 34.038 120.209 33.138C120.041 32.238 119.729 31.518 119.273 30.978C118.817 30.426 118.145 30.15 117.257 30.15C116.393 30.15 115.727 30.426 115.259 30.978C114.791 31.518 114.467 32.238 114.287 33.138C114.119 34.038 114.035 35.01 114.035 36.054ZM128.381 37.278C128.309 36.966 128.255 36.63 128.219 36.27C128.195 35.898 128.183 35.592 128.183 35.352C128.183 35.1 128.195 34.794 128.219 34.434C128.255 34.062 128.309 33.72 128.381 33.408H137.921C138.005 33.72 138.059 34.062 138.083 34.434C138.107 34.794 138.119 35.1 138.119 35.352C138.119 35.592 138.107 35.898 138.083 36.27C138.059 36.63 138.005 36.966 137.921 37.278H128.381ZM147.507 45.054H145.473C144.621 45.054 143.937 44.802 143.421 44.298C142.917 43.794 142.665 43.086 142.665 42.174V20.466L142.899 20.214H144.699C145.647 20.214 146.349 20.46 146.805 20.952C147.273 21.432 147.507 22.206 147.507 23.274V45.054ZM157.479 40.896C157.479 42.456 157.227 43.542 156.723 44.154C156.219 44.754 155.379 45.054 154.203 45.054H145.473L142.917 41.562C144.261 41.334 145.623 41.166 147.003 41.058C148.383 40.95 149.643 40.896 150.783 40.896H157.479ZM165.754 45C165.43 45.06 165.058 45.102 164.638 45.126C164.23 45.15 163.822 45.162 163.414 45.162C163.006 45.162 162.592 45.15 162.172 45.126C161.764 45.102 161.386 45.06 161.038 45V32.472C161.038 31.848 160.918 31.362 160.678 31.014C160.45 30.666 160.03 30.492 159.418 30.492H158.932C158.8 29.964 158.734 29.424 158.734 28.872C158.734 28.596 158.752 28.314 158.788 28.026C158.824 27.738 158.872 27.45 158.932 27.162C159.448 27.102 159.952 27.06 160.444 27.036C160.936 27.012 161.35 27 161.686 27H162.316C163.384 27 164.224 27.336 164.836 28.008C165.448 28.68 165.754 29.598 165.754 30.762V45ZM159.958 22.194C159.958 21.894 159.988 21.582 160.048 21.258C160.12 20.922 160.216 20.61 160.336 20.322C160.6 20.178 160.948 20.064 161.38 19.98C161.824 19.884 162.256 19.836 162.676 19.836C163.096 19.836 163.534 19.884 163.99 19.98C164.446 20.064 164.788 20.178 165.016 20.322C165.136 20.61 165.226 20.922 165.286 21.258C165.358 21.594 165.394 21.906 165.394 22.194C165.394 22.482 165.358 22.794 165.286 23.13C165.226 23.466 165.136 23.772 165.016 24.048C164.788 24.192 164.446 24.312 163.99 24.408C163.534 24.504 163.096 24.552 162.676 24.552C162.256 24.552 161.818 24.51 161.362 24.426C160.918 24.33 160.576 24.204 160.336 24.048C160.216 23.772 160.12 23.466 160.048 23.13C159.988 22.794 159.958 22.482 159.958 22.194ZM173.666 27.162L180.542 27.09C180.662 27.618 180.722 28.176 180.722 28.764C180.722 29.04 180.704 29.328 180.668 29.628C180.644 29.928 180.602 30.216 180.542 30.492L173.612 30.384L168.284 30.492C168.224 30.216 168.176 29.928 168.14 29.628C168.116 29.328 168.104 29.04 168.104 28.764C168.104 28.488 168.116 28.206 168.14 27.918C168.176 27.63 168.224 27.354 168.284 27.09L173.666 27.162ZM171.38 29.106C171.308 28.29 171.218 27.486 171.11 26.694C171.002 25.89 170.948 25.104 170.948 24.336C170.948 23.196 171.188 22.182 171.668 21.294C172.148 20.394 172.832 19.686 173.72 19.17C174.62 18.642 175.676 18.378 176.888 18.378C177.86 18.378 178.796 18.474 179.696 18.666C180.608 18.858 181.358 19.068 181.946 19.296C181.97 19.836 181.886 20.412 181.694 21.024C181.502 21.624 181.244 22.092 180.92 22.428C180.512 22.308 180.044 22.194 179.516 22.086C178.988 21.978 178.472 21.924 177.968 21.924C177.176 21.924 176.558 22.152 176.114 22.608C175.67 23.064 175.448 23.742 175.448 24.642C175.448 25.326 175.514 26.064 175.646 26.856C175.778 27.648 175.892 28.416 175.988 29.16V45C175.628 45.06 175.244 45.102 174.836 45.126C174.44 45.15 174.044 45.162 173.648 45.162C173.276 45.162 172.892 45.15 172.496 45.126C172.112 45.102 171.74 45.06 171.38 45V29.106ZM184.568 37.566V34.272H192.308V33.822C192.308 33.138 192.212 32.508 192.02 31.932C191.828 31.356 191.516 30.894 191.084 30.546C190.652 30.198 190.076 30.024 189.356 30.024C188.312 30.024 187.55 30.462 187.07 31.338C186.602 32.202 186.368 33.456 186.368 35.1V36.522C186.368 37.494 186.458 38.382 186.638 39.186C186.83 39.99 187.19 40.632 187.718 41.112C188.258 41.58 189.038 41.814 190.058 41.814C190.922 41.814 191.756 41.7 192.56 41.472C193.376 41.232 194.156 40.938 194.9 40.59C195.26 40.95 195.554 41.4 195.782 41.94C196.022 42.48 196.172 42.99 196.232 43.47C195.356 44.106 194.3 44.604 193.064 44.964C191.84 45.312 190.592 45.486 189.32 45.486C187.808 45.486 186.554 45.234 185.558 44.73C184.562 44.214 183.77 43.518 183.182 42.642C182.606 41.754 182.198 40.752 181.958 39.636C181.718 38.508 181.598 37.344 181.598 36.144C181.598 34.344 181.874 32.73 182.426 31.302C182.978 29.862 183.83 28.722 184.982 27.882C186.134 27.042 187.604 26.622 189.392 26.622C190.964 26.622 192.29 26.964 193.37 27.648C194.462 28.32 195.29 29.232 195.854 30.384C196.43 31.536 196.718 32.832 196.718 34.272C196.718 34.968 196.688 35.556 196.628 36.036C196.568 36.504 196.472 37.014 196.34 37.566H184.568Z" fill="#404A3D"/>
</svg>
