<svg width="46" height="46" viewBox="0 0 46 46" fill="none" xmlns="http://www.w3.org/2000/svg">
<g clip-path="url(#clip0_1_6305)">
<path d="M23.8906 26C22.1906 26 20.5406 25.75 18.9406 25.25C17.6406 24.75 16.5656 24 15.7156 23C14.8656 22 14.2906 20.825 13.9906 19.475C13.6906 18.125 13.7906 16.775 14.2906 15.425C14.7906 14.075 15.6406 12.8 16.8406 11.6L17.5906 11C18.7906 9.9 20.1656 9.2 21.7156 8.9C23.2656 8.6 24.7906 8.675 26.2906 9.125C27.7906 9.575 28.9906 10.4 29.8906 11.6C30.7906 12.8 31.2906 14.2 31.3906 15.8C31.4906 17.6 30.9406 19.2 29.7406 20.6C29.3406 21.2 28.7906 21.625 28.0906 21.875C27.3906 22.125 26.7156 22.175 26.0656 22.025C25.4156 21.875 24.9406 21.55 24.6406 21.05C24.3406 20.55 24.2906 20 24.4906 19.4C24.9906 17.7 25.4406 15.65 25.8406 13.25C25.8406 12.95 25.9906 12.75 26.2906 12.65C26.5906 12.55 26.8406 12.575 27.0406 12.725C27.2406 12.875 27.3406 13.1 27.3406 13.4C26.8406 16 26.3906 18.15 25.9906 19.85C25.8906 19.95 25.8906 20.075 25.9906 20.225C26.0906 20.375 26.2406 20.5 26.4406 20.6C26.8406 20.6 27.2406 20.525 27.6406 20.375C28.0406 20.225 28.3906 20 28.6906 19.7C29.5906 18.6 30.0156 17.375 29.9656 16.025C29.9156 14.675 29.5156 13.5 28.7656 12.5C28.0156 11.5 27.0156 10.825 25.7656 10.475C24.5156 10.125 23.2656 10.1 22.0156 10.4C20.7656 10.7 19.5906 11.25 18.4906 12.05L17.8906 12.65C17.0906 13.45 16.4406 14.3 15.9406 15.2C15.3406 16.6 15.1906 17.95 15.4906 19.25C15.6906 20.25 16.1406 21.175 16.8406 22.025C17.5406 22.875 18.3906 23.45 19.3906 23.75C21.4906 24.45 23.4906 24.65 25.3906 24.35C27.6906 24.15 29.4406 23.3 30.6406 21.8C30.7406 21.6 30.8906 21.5 31.0906 21.5C31.2906 21.5 31.4906 21.55 31.6906 21.65C31.8906 21.75 31.9906 21.9 31.9906 22.1C31.9906 22.3 31.9406 22.5 31.8406 22.7C30.9406 23.8 29.7906 24.625 28.3906 25.175C26.9906 25.725 25.4906 26 23.8906 26ZM21.3406 22.1C20.5406 22.1 19.8156 21.85 19.1656 21.35C18.5156 20.85 18.1156 20.175 17.9656 19.325C17.8156 18.475 17.8406 17.65 18.0406 16.85C18.2406 16.35 18.4406 15.9 18.6406 15.5C19.2406 14.4 20.0906 13.5 21.1906 12.8C21.8906 12.5 22.6156 12.4 23.3656 12.5C24.1156 12.6 24.7656 12.95 25.3156 13.55C25.8656 14.15 26.2906 14.85 26.5906 15.65C26.6906 15.85 26.6906 16.025 26.5906 16.175C26.4906 16.325 26.3406 16.45 26.1406 16.55C25.9406 16.65 25.7406 16.65 25.5406 16.55C25.3406 16.45 25.1906 16.3 25.0906 16.1C24.9906 15.5 24.7656 15.025 24.4156 14.675C24.0656 14.325 23.6656 14.1 23.2156 14C22.7656 13.9 22.3406 13.95 21.9406 14.15C21.0406 14.65 20.3906 15.35 19.9906 16.25C19.7906 16.55 19.6156 16.925 19.4656 17.375C19.3156 17.825 19.2906 18.325 19.3906 18.875C19.4906 19.425 19.7406 19.875 20.1406 20.225C20.5406 20.575 21.0656 20.7 21.7156 20.6C22.3656 20.5 22.8906 20.25 23.2906 19.85C23.8906 19.35 24.4406 18.7 24.9406 17.9C25.0406 17.7 25.2406 17.6 25.5406 17.6C25.8406 17.6 26.0656 17.725 26.2156 17.975C26.3656 18.225 26.3406 18.5 26.1406 18.8C25.6406 19.6 24.9906 20.35 24.1906 21.05C23.3906 21.75 22.4406 22.1 21.3406 22.1ZM43.2406 45.5H2.74063C2.14063 45.5 1.61563 45.275 1.16563 44.825C0.715625 44.375 0.490625 43.85 0.490625 43.25V15.5C0.490625 15.2 0.640625 14.975 0.940625 14.825C1.24063 14.675 1.49063 14.7 1.69063 14.9L20.1406 30.2C20.9406 30.9 21.8906 31.25 22.9906 31.25C24.0906 31.25 25.0406 30.9 25.8406 30.2L44.2906 14.9C44.4906 14.7 44.7406 14.675 45.0406 14.825C45.3406 14.975 45.4906 15.2 45.4906 15.5V43.25C45.4906 43.85 45.2656 44.375 44.8156 44.825C44.3656 45.275 43.8406 45.5 43.2406 45.5ZM1.99063 17.15V43.25C1.99063 43.45 2.06563 43.625 2.21563 43.775C2.36563 43.925 2.54063 44 2.74063 44H43.2406C43.4406 44 43.6156 43.925 43.7656 43.775C43.9156 43.625 43.9906 43.45 43.9906 43.25V17.15L26.8906 31.4C25.6906 32.3 24.3906 32.75 22.9906 32.75C21.5906 32.75 20.2906 32.3 19.0906 31.4L1.99063 17.15ZM1.24063 16.25C0.840625 16.25 0.590625 16.075 0.490625 15.725C0.390625 15.375 0.490625 15.1 0.790625 14.9L7.54063 10.1C7.74063 10 7.94063 9.975 8.14063 10.025C8.34063 10.075 8.49063 10.175 8.59063 10.325C8.69063 10.475 8.74063 10.65 8.74063 10.85C8.74063 11.05 8.64062 11.2 8.44063 11.3L1.69063 16.1C1.59063 16.2 1.44063 16.25 1.24063 16.25ZM44.7406 16.25C44.5406 16.25 44.3906 16.2 44.2906 16.1L37.5406 11.3C37.3406 11.2 37.2406 11.05 37.2406 10.85C37.2406 10.65 37.2906 10.475 37.3906 10.325C37.4906 10.175 37.6406 10.075 37.8406 10.025C38.0406 9.975 38.2406 10 38.4406 10.1L45.1906 14.9C45.4906 15.1 45.5906 15.375 45.4906 15.725C45.3906 16.075 45.1406 16.25 44.7406 16.25ZM29.8906 5.75C29.7906 5.75 29.6406 5.7 29.4406 5.6L25.8406 3.05C25.0406 2.35 24.0906 2 22.9906 2C21.8906 2 20.9406 2.35 20.1406 3.05L16.5406 5.6C16.2406 5.8 15.9656 5.825 15.7156 5.675C15.4656 5.525 15.3406 5.325 15.3406 5.075C15.3406 4.825 15.4406 4.6 15.6406 4.4L19.2406 1.85C20.3406 0.949997 21.5906 0.5 22.9906 0.5C24.3906 0.5 25.6406 0.949997 26.7406 1.85L30.3406 4.4C30.6406 4.6 30.7406 4.875 30.6406 5.225C30.5406 5.575 30.2906 5.75 29.8906 5.75ZM1.69063 45.05C1.39063 45.05 1.16563 44.9 1.01562 44.6C0.865625 44.3 0.940625 44 1.24063 43.7L18.3406 29.6C18.5406 29.4 18.7906 29.35 19.0906 29.45C19.3906 29.55 19.5656 29.75 19.6156 30.05C19.6656 30.35 19.5906 30.55 19.3906 30.65L2.14063 44.9C2.04063 45 1.89063 45.05 1.69063 45.05ZM44.2906 45.05C44.0906 45.05 43.9406 45 43.8406 44.9L26.5906 30.65C26.3906 30.55 26.3156 30.35 26.3656 30.05C26.4156 29.75 26.5906 29.55 26.8906 29.45C27.1906 29.35 27.4406 29.4 27.6406 29.6L44.7406 43.7C45.0406 44 45.1156 44.3 44.9656 44.6C44.8156 44.9 44.5906 45.05 44.2906 45.05ZM37.9906 21.8C37.7906 21.8 37.6156 21.725 37.4656 21.575C37.3156 21.425 37.2406 21.25 37.2406 21.05V5.75H8.74063V21.05C8.74063 21.25 8.66563 21.425 8.51562 21.575C8.36563 21.725 8.19063 21.8 7.99063 21.8C7.79063 21.8 7.61563 21.725 7.46563 21.575C7.31563 21.425 7.24063 21.25 7.24063 21.05V5.75C7.24063 5.35 7.39063 5 7.69063 4.7C7.99063 4.4 8.39063 4.25 8.89062 4.25H37.0906C37.5906 4.25 37.9906 4.4 38.2906 4.7C38.5906 5 38.7406 5.35 38.7406 5.75V21.05C38.7406 21.25 38.6656 21.425 38.5156 21.575C38.3656 21.725 38.1906 21.8 37.9906 21.8Z" fill="#404A3D"/>
</g>
<defs>
<clipPath id="clip0_1_6305">
<rect width="45.02" height="45" fill="white" transform="matrix(1 0 0 -1 0.480469 45.5)"/>
</clipPath>
</defs>
</svg>
