<svg width="60" height="60" viewBox="0 0 60 60" fill="none" xmlns="http://www.w3.org/2000/svg">
<path d="M50.625 6.875H9.375C7.99425 6.875 6.875 7.99425 6.875 9.375V50.625C6.875 52.0057 7.99425 53.125 9.375 53.125H50.625C52.0057 53.125 53.125 52.0057 53.125 50.625V9.375C53.125 7.99425 52.0057 6.875 50.625 6.875Z" stroke="black" stroke-width="1.25" stroke-linecap="round" stroke-linejoin="round"/>
<path d="M25.4658 14.3756H46.0933V20.6256H25.4658V14.3756Z" stroke="black" stroke-width="1.25" stroke-linecap="round" stroke-linejoin="round"/>
<path d="M25.4658 26.875H46.0933V33.125H25.4658V26.875Z" stroke="black" stroke-width="1.25" stroke-linecap="round" stroke-linejoin="round"/>
<path d="M25.4658 39.3744H46.0933V45.6244H25.4658V39.3744Z" stroke="black" stroke-width="1.25" stroke-linecap="round" stroke-linejoin="round"/>
<path d="M20.1562 14.3756H13.9062V20.6256H20.1562V14.3756Z" stroke="black" stroke-width="1.25" stroke-linecap="round" stroke-linejoin="round"/>
<path d="M20.1562 26.875H13.9062V33.125H20.1562V26.875Z" stroke="black" stroke-width="1.25" stroke-linecap="round" stroke-linejoin="round"/>
<path d="M20.1562 39.3744H13.9062V45.6244H20.1562V39.3744Z" stroke="black" stroke-width="1.25" stroke-linecap="round" stroke-linejoin="round"/>
</svg>
