<svg width="46" height="46" viewBox="0 0 46 46" fill="none" xmlns="http://www.w3.org/2000/svg">
<path d="M43.9504 35.15L34.8004 29.15C34.3004 28.75 33.7004 28.6 33.0004 28.7C32.3004 28.8 31.7504 29.15 31.3504 29.75L28.6504 33.2C28.4504 33.4 28.2254 33.525 27.9754 33.575C27.7254 33.625 27.4504 33.6 27.1504 33.5L26.7004 33.2C25.5004 32.5 24.5004 31.85 23.7004 31.25C22.2004 30.25 20.5254 28.825 18.6754 26.975C16.8254 25.125 15.4004 23.45 14.4004 21.95C13.8004 21.15 13.1504 20.15 12.4504 18.95L12.1504 18.5C12.0504 18.2 12.0254 17.925 12.0754 17.675C12.1254 17.425 12.2504 17.2 12.4504 17L15.9004 14.3C16.5004 13.9 16.8504 13.35 16.9504 12.65C17.0504 11.95 16.9004 11.35 16.5004 10.85L10.5004 1.7C10.1004 1.1 9.55043 0.724998 8.85043 0.574997C8.15043 0.424999 7.50043 0.549999 6.90043 0.949997L3.00043 3.2C1.80043 3.9 1.00043 4.95 0.600426 6.35C-0.199574 9.45 0.100426 12.85 1.50043 16.55C3.40043 21.55 7.25043 26.95 13.0504 32.75C17.6504 37.35 22.0504 40.75 26.2504 42.95C29.6504 44.65 32.8504 45.5 35.8504 45.5C36.9504 45.5 38.1004 45.35 39.3004 45.05C40.7004 44.65 41.7504 43.85 42.4504 42.65L44.7004 38.75C45.1004 38.15 45.2254 37.5 45.0754 36.8C44.9254 36.1 44.5504 35.55 43.9504 35.15ZM43.5004 38L41.2504 41.75C40.6504 42.65 39.8504 43.25 38.8504 43.55C36.0504 44.35 32.8504 44.05 29.2504 42.65C24.6504 40.85 19.5754 37.175 14.0254 31.625C8.47543 26.075 4.80043 21 3.00043 16.4C1.60043 12.8 1.30043 9.6 2.10043 6.8C2.40043 5.8 3.00043 5 3.90043 4.4L7.65043 2.15C7.95043 2.05 8.25043 2.025 8.55043 2.075C8.85043 2.125 9.05043 2.25 9.15043 2.45L15.3004 11.6C15.4004 11.9 15.4254 12.2 15.3754 12.5C15.3254 12.8 15.2004 13 15.0004 13.1L11.5504 15.8C11.0504 16.2 10.7254 16.725 10.5754 17.375C10.4254 18.025 10.5504 18.65 10.9504 19.25L11.1004 19.7C11.8004 20.9 12.5004 21.95 13.2004 22.85C14.3004 24.35 15.8004 26.05 17.7004 27.95C19.6004 29.85 21.3004 31.35 22.8004 32.45C23.7004 33.15 24.7504 33.8 25.9504 34.4L26.4004 34.7C27.0004 35.1 27.6254 35.225 28.2754 35.075C28.9254 34.925 29.4504 34.6 29.8504 34.1L32.5504 30.65C32.6504 30.45 32.8504 30.325 33.1504 30.275C33.4504 30.225 33.7504 30.25 34.0504 30.35L43.2004 36.5C43.4004 36.6 43.5254 36.8 43.5754 37.1C43.6254 37.4 43.6004 37.7 43.5004 38ZM25.6504 8C27.9504 8 30.0754 8.575 32.0254 9.725C33.9754 10.875 35.5254 12.425 36.6754 14.375C37.8254 16.325 38.4004 18.45 38.4004 20.75C38.4004 20.95 38.4754 21.125 38.6254 21.275C38.7754 21.425 38.9504 21.5 39.1504 21.5C39.3504 21.5 39.5254 21.425 39.6754 21.275C39.8254 21.125 39.9004 20.95 39.9004 20.75C39.9004 18.15 39.2504 15.775 37.9504 13.625C36.6504 11.475 34.9254 9.75 32.7754 8.45C30.6254 7.15 28.2504 6.5 25.6504 6.5C25.4504 6.5 25.2754 6.575 25.1254 6.725C24.9754 6.875 24.9004 7.05 24.9004 7.25C24.9004 7.45 24.9754 7.625 25.1254 7.775C25.2754 7.925 25.4504 8 25.6504 8ZM25.6504 12.5C27.9504 12.5 29.9004 13.3 31.5004 14.9C33.1004 16.5 33.9004 18.45 33.9004 20.75C33.9004 20.95 33.9754 21.125 34.1254 21.275C34.2754 21.425 34.4504 21.5 34.6504 21.5C34.8504 21.5 35.0254 21.425 35.1754 21.275C35.3254 21.125 35.4004 20.95 35.4004 20.75C35.4004 18.95 34.9504 17.325 34.0504 15.875C33.1504 14.425 31.9754 13.25 30.5254 12.35C29.0754 11.45 27.4504 11 25.6504 11C25.4504 11 25.2754 11.075 25.1254 11.225C24.9754 11.375 24.9004 11.55 24.9004 11.75C24.9004 11.95 24.9754 12.125 25.1254 12.275C25.2754 12.425 25.4504 12.5 25.6504 12.5ZM25.6504 17C26.6504 17 27.5254 17.375 28.2754 18.125C29.0254 18.875 29.4004 19.75 29.4004 20.75C29.4004 20.95 29.4754 21.125 29.6254 21.275C29.7754 21.425 29.9504 21.5 30.1504 21.5C30.3504 21.5 30.5254 21.425 30.6754 21.275C30.8254 21.125 30.9004 20.95 30.9004 20.75C30.9004 19.35 30.3754 18.125 29.3254 17.075C28.2754 16.025 27.0504 15.5 25.6504 15.5C25.4504 15.5 25.2754 15.575 25.1254 15.725C24.9754 15.875 24.9004 16.05 24.9004 16.25C24.9004 16.45 24.9754 16.625 25.1254 16.775C25.2754 16.925 25.4504 17 25.6504 17Z" fill="#404A3D"/>
</svg>
