<svg width="50" height="50" viewBox="0 0 50 50" fill="none" xmlns="http://www.w3.org/2000/svg">
<g clip-path="url(#clip0_2018_2236)">
<path d="M22.2752 9.61544L13.1405 26.6026L7.85208 28.0449C8.41297 26.9765 9.12077 26.0284 9.97547 25.2004C10.8035 24.4258 11.6849 24.0385 12.6197 24.0385C14.8633 24.0385 16.9066 24.9867 18.7495 26.8831C20.5925 28.7794 21.5139 31.1299 21.5139 33.9343C21.5139 36.9525 20.4856 39.5567 18.429 41.7468C16.3724 43.937 13.835 45.0321 10.8168 45.0321C7.9055 45.0321 5.3681 43.9637 3.20464 41.827C1.04118 39.6902 -0.0271974 37.0593 -0.000487976 33.9343C-0.000487976 32.7591 0.253251 31.3302 0.76073 29.6475C1.26821 27.9648 2.21639 25.8414 3.60528 23.2773L13.5412 4.968L22.2752 9.61544ZM49.9995 9.61544L40.8248 26.6026L35.5764 28.0449C36.1106 27.0033 36.7917 26.0551 37.6197 25.2004C38.3943 24.4258 39.3024 24.0385 40.3441 24.0385C42.5609 24.0385 44.5909 24.9867 46.4338 26.8831C48.2768 28.7794 49.1982 31.1299 49.1982 33.9343C49.1982 36.9525 48.1566 39.5567 46.0732 41.7468C43.9899 43.937 41.4258 45.0321 38.3809 45.0321C35.5497 45.0321 33.0658 43.9637 30.929 41.827C28.7922 39.6902 27.7105 37.0593 27.6838 33.9343C27.6838 32.7324 27.9509 31.3035 28.4851 29.6475C29.0193 27.9915 29.9541 25.8681 31.2896 23.2773L41.2255 4.968L49.9995 9.61544Z" fill="#404A3D"/>
</g>
<defs>
<clipPath id="clip0_2018_2236">
<rect width="50" height="50" fill="white" transform="matrix(1 0 0 -1 0 50)"/>
</clipPath>
</defs>
</svg>
