<svg width="8" height="13" viewBox="0 0 8 13" fill="none" xmlns="http://www.w3.org/2000/svg">
<path d="M7.30976 6.79266C7.30976 6.8954 7.27306 6.98347 7.19968 7.05686L1.45329 12.8032C1.3799 12.8766 1.29183 12.9133 1.18909 12.9133C1.08634 12.9133 0.990936 12.8766 0.902868 12.8032L0.286398 12.1868C0.19833 12.0987 0.154297 12.0033 0.154297 11.9006C0.154297 11.7978 0.19833 11.7024 0.286398 11.6143L5.10808 6.79266L0.286398 1.94896C0.19833 1.87557 0.154297 1.7875 0.154297 1.68476C0.154297 1.58201 0.19833 1.48661 0.286398 1.39854L0.902868 0.782069C0.976258 0.694002 1.07166 0.649969 1.18909 0.649969C1.30651 0.649969 1.39458 0.694002 1.45329 0.782069L7.19968 6.50644C7.27306 6.57983 7.30976 6.67523 7.30976 6.79266Z" fill="#404A3D"/>
</svg>
