<svg width="21" height="20" viewBox="0 0 21 20" fill="none" xmlns="http://www.w3.org/2000/svg">
<path d="M16.1899 12.4C15.7899 11.9556 15.3232 11.7333 14.7899 11.7333C14.2565 11.7333 13.7676 11.9556 13.3232 12.4L11.9899 13.7333L11.2565 13.3333C10.0121 12.5333 8.85652 11.4667 7.78985 10.1333C7.25652 9.51111 6.87874 8.91111 6.65652 8.33333L7.98985 7.06667C8.43429 6.62222 8.65652 6.13333 8.65652 5.6C8.65652 5.06667 8.43429 4.57778 7.98985 4.13333L5.65652 1.8C5.21207 1.35555 4.73429 1.13333 4.22318 1.13333C3.71207 1.13333 3.23429 1.35555 2.78985 1.8L1.32318 3.26667C0.78985 3.8 0.478739 4.44444 0.38985 5.2C0.345405 6.13333 0.545405 7.17778 0.98985 8.33333C1.65652 10.1556 2.72318 11.9556 4.18985 13.7333C6.05652 15.9556 8.25652 17.6667 10.7899 18.8667C12.2121 19.5333 13.4565 19.9111 14.5232 20H14.7899C15.7676 20 16.5676 19.6444 17.1898 18.9333H17.2565C17.3899 18.7556 17.6121 18.5111 17.9232 18.2L18.5232 17.6C18.9676 17.1556 19.1899 16.6667 19.1899 16.1333C19.1899 15.6 18.9676 15.1333 18.5232 14.7333L16.1899 12.4ZM17.7232 16.8667L17.1898 17.3333C16.8343 17.6889 16.5676 17.9778 16.3899 18.2C15.9454 18.6444 15.4121 18.8667 14.7899 18.8667H14.5899C13.6565 18.8222 12.5676 18.4889 11.3232 17.8667C8.92318 16.7111 6.83429 15.0889 5.05652 13C3.67874 11.3111 2.67874 9.62222 2.05652 7.93333C1.65652 6.91111 1.50096 6.02222 1.58985 5.26667C1.63429 4.77778 1.81207 4.37778 2.12318 4.06667L3.58985 2.6C3.81207 2.37778 4.02318 2.26667 4.22318 2.26667C4.42318 2.26667 4.63429 2.37778 4.85652 2.6L7.18985 4.93333C7.58985 5.37778 7.58985 5.8 7.18985 6.2L6.78985 6.6C6.38985 7.04444 6.03429 7.37778 5.72318 7.6V7.66667C5.45652 7.93333 5.38985 8.24444 5.52318 8.6V8.66667C5.78985 9.33333 6.23429 10.0667 6.85652 10.8667C8.01207 12.2889 9.27874 13.4222 10.6565 14.2667L11.5899 14.8C11.7676 14.8889 11.9454 14.9333 12.1232 14.9333C12.301 14.9333 12.4787 14.8222 12.6565 14.6L14.1232 13.2C14.3454 12.9778 14.5565 12.8667 14.7565 12.8667C14.9565 12.8667 15.1676 12.9778 15.3899 13.2L17.7232 15.5333C18.1232 15.9333 18.1232 16.3778 17.7232 16.8667ZM11.1899 4.73333C12.301 4.95555 13.2676 5.46667 14.0899 6.26667C14.9121 7.06667 15.4121 8.04444 15.5899 9.2C15.6343 9.33333 15.7121 9.44444 15.8232 9.53333C15.9343 9.62222 16.0565 9.66667 16.1899 9.66667H16.2565C16.4343 9.62222 16.5676 9.53333 16.6565 9.4C16.7454 9.26667 16.7676 9.13333 16.7232 9C16.501 7.62222 15.901 6.44444 14.9232 5.46667C13.9454 4.48889 12.7676 3.88889 11.3899 3.66667C11.2565 3.62222 11.1232 3.64444 10.9899 3.73333C10.8565 3.82222 10.7787 3.94444 10.7565 4.1C10.7343 4.25556 10.7676 4.4 10.8565 4.53333C10.9454 4.66667 11.0565 4.73333 11.1899 4.73333ZM20.3899 8.8C19.9899 6.57778 18.9787 4.65555 17.3565 3.03333C15.7343 1.41111 13.7899 0.4 11.5232 -1.90735e-06C11.3899 -1.90735e-06 11.2565 0.0444431 11.1232 0.133333C10.9899 0.222221 10.9121 0.344444 10.8899 0.499998C10.8676 0.655554 10.901 0.788887 10.9899 0.9C11.0787 1.01111 11.2121 1.08889 11.3899 1.13333C13.3899 1.48889 15.1121 2.38889 16.5565 3.83333C18.001 5.27778 18.901 7 19.2565 9C19.2565 9.13333 19.3121 9.24444 19.4232 9.33333C19.5343 9.42222 19.6565 9.46667 19.7899 9.46667H19.9232C20.0565 9.46667 20.1676 9.4 20.2565 9.26667C20.3454 9.13333 20.3899 8.97778 20.3899 8.8Z" fill="#404A3D"/>
</svg>
