<svg width="16" height="16" viewBox="0 0 16 16" fill="none" xmlns="http://www.w3.org/2000/svg">
<path d="M7.88838 -0.0159912C7.95238 -0.0159912 8.01638 -0.0159912 8.08038 -0.0159912C8.19771 0.0160084 8.30438 0.0800085 8.40038 0.176008C8.99771 1.38134 9.74438 2.96534 10.6404 4.92801C12.859 5.29068 14.5284 5.55201 15.6484 5.71201C15.8084 5.77601 15.9204 5.87734 15.9844 6.01601V6.38401C15.899 6.52267 15.8084 6.64001 15.7124 6.73601L12.3204 10.208C12.5764 11.968 12.8484 13.728 13.1364 15.488C13.1257 15.7227 13.0137 15.888 12.8004 15.984H12.4164L10.6884 15.024C9.49371 14.352 8.59238 13.8507 7.98438 13.52L3.55238 15.984H3.16838C2.95504 15.888 2.84304 15.7227 2.83238 15.488C3.21638 13.1413 3.49371 11.3813 3.66438 10.208L0.288375 6.76801C0.213708 6.68268 0.112375 6.55468 -0.015625 6.38401V6.01601C0.048375 5.86668 0.165708 5.76534 0.336375 5.71201C1.44571 5.55201 3.10971 5.29068 5.32838 4.92801C5.93638 3.60534 6.68304 2.02134 7.56838 0.176008C7.66438 0.0800085 7.77104 0.0160084 7.88838 -0.0159912Z" fill="#FDCF00"/>
</svg>
