<svg width="60" height="60" viewBox="0 0 60 60" fill="none" xmlns="http://www.w3.org/2000/svg">
<path d="M53.8256 45.5494L45.7762 37.5H48.7499C49.5084 37.5 50.1918 37.0434 50.4824 36.3431C50.7731 35.6419 50.6128 34.8366 50.0756 34.2994L42.0262 26.25H44.9999C45.7584 26.25 46.4418 25.7934 46.7324 25.0931C47.0231 24.3919 46.8628 23.5866 46.3256 23.0494L38.2762 15H41.2499C42.0084 15 42.6918 14.5434 42.9824 13.8431C43.2731 13.1419 43.1128 12.3366 42.5756 11.7994L31.3256 0.549375C30.959 0.182813 30.4799 0 29.9999 0C29.5199 0 29.0409 0.182813 28.6743 0.549375L17.4243 11.7994C16.8881 12.3356 16.7278 13.1419 17.0174 13.8431C17.3081 14.5434 17.9915 15 18.7499 15H21.7237L13.6743 23.0494C13.1381 23.5856 12.9778 24.3919 13.2674 25.0931C13.5581 25.7934 14.2415 26.25 14.9999 26.25H17.9737L9.92431 34.2994C9.38806 34.8356 9.22775 35.6419 9.51744 36.3431C9.80806 37.0434 10.4915 37.5 11.2499 37.5H14.2237L6.17431 45.5494C5.63806 46.0856 5.47775 46.8919 5.76744 47.5931C6.05806 48.2934 6.7415 48.75 7.49994 48.75H26.2499V59.0625C26.2499 59.5809 26.669 60 27.1874 60H32.8124C33.3309 60 33.7499 59.5809 33.7499 59.0625V48.75H52.4999C53.2584 48.75 53.9418 48.2934 54.2324 47.5931C54.5221 46.8919 54.3618 46.0856 53.8256 45.5494ZM19.6874 13.125C19.1746 13.125 18.9478 12.9272 19.6874 12.1875C20.2884 11.5866 28.1249 3.75 29.0624 2.8125C29.9999 1.875 29.9999 1.875 30.9374 2.8125C30.9374 2.8125 39.659 11.5359 40.3115 12.1875C40.964 12.8391 40.8834 13.125 40.3124 13.125C40.0115 13.125 19.8065 13.125 19.6874 13.125ZM15.9374 24.375C15.4246 24.375 15.2193 24.1556 15.9374 23.4375C16.3537 23.0212 21.5165 17.8584 24.3749 15H35.6249C38.4384 17.8125 43.4849 22.86 44.0624 23.4375C44.8678 24.2428 44.5021 24.375 44.0624 24.375C43.8281 24.375 16.0565 24.375 15.9374 24.375ZM12.1874 35.625C11.6165 35.625 11.4628 35.4122 12.1874 34.6875C12.6196 34.2553 17.7712 29.1047 20.6249 26.25H39.3749C42.2531 29.1281 47.4693 34.3444 47.8124 34.6875C48.4199 35.295 48.4274 35.625 47.8124 35.625C47.324 35.625 12.314 35.625 12.1874 35.625ZM31.8749 58.125H28.1249V48.75H31.8749V58.125ZM51.5624 46.875C50.6249 46.875 9.0965 46.875 8.43744 46.875C7.98369 46.875 7.69025 46.6847 8.43744 45.9375C8.88556 45.4894 14.0249 40.3491 16.8749 37.5H43.1249C45.9984 40.3734 51.2006 45.5766 51.5643 45.9394C52.214 46.5891 52.1043 46.875 51.5624 46.875Z" fill="#231F20"/>
</svg>
