<svg width="60" height="60" viewBox="0 0 60 60" fill="none" xmlns="http://www.w3.org/2000/svg">
<path d="M30.6245 51.251C23.7253 51.2385 18.1383 45.6515 18.1258 38.7522C18.1258 38.0648 17.5634 37.5023 16.8759 37.5023C16.1884 37.5023 15.626 38.0648 15.626 38.7522C15.6385 47.0263 22.3503 53.7382 30.6244 53.7507C31.3119 53.7507 31.8743 53.1882 31.8743 52.5008C31.8745 51.8134 31.312 51.251 30.6245 51.251Z" fill="black"/>
<path d="M30.8622 0.356214C30.3748 -0.118697 29.5999 -0.118697 29.1249 0.356214C28.3249 1.14363 9.37695 19.8417 9.37695 38.9272C9.37695 50.551 18.626 60 29.9998 60C41.3737 60 50.6227 50.551 50.6227 38.9272C50.6227 19.7292 31.6746 1.14363 30.8622 0.356214ZM29.9998 57.5003C20.0009 57.5003 11.8767 49.1636 11.8767 38.9272C11.8767 23.1539 26.2752 6.96795 29.9998 3.0434C33.7245 6.95553 48.123 23.0663 48.123 38.9272C48.1229 49.1636 39.9862 57.5003 29.9998 57.5003Z" fill="black"/>
</svg>
